<svg width="20" height="28" viewBox="0 0 20 28" fill="none" xmlns="http://www.w3.org/2000/svg">
<path d="M5.14783 19.9202L8.80945 19.6463L10.0634 23.5228L5.14783 21.2404L5.14783 19.9202Z" fill="#133254"/>
<path d="M13.5225 27.6676L13.1038 25.7533L16.2771 23.0926L19.1159 25.3645L13.5225 27.6676Z" fill="#133254"/>
<path d="M11.1033 0.0511155C11.1036 0.0537587 11.1036 0.0564957 11.1033 0.0593252L11.1033 9.71569L13.8827 22.6623L9.77522 23.7142L4.84242 11.1219L-1.90682e-08 3.16928C1.8675 0.774385 8.98804 -0.249542 11.1033 0.0511155Z" fill="#11151C"/>
<path d="M9.20108 10.9987C8.49469 10.5641 5.60109 10.8176 4.24258 10.9987C3.26447 13.1181 3.83504 18.81 4.24258 21.391L9.20108 23.9558L13.1337 25.9299C14.9903 25.2733 15.8877 25.0969 16.3224 23.9558C16.7571 22.8146 15.3031 17.7129 14.7145 15.1091C13.6503 13.7959 11.952 10.5584 11.2993 10.2828C11.2275 10.2525 11.1831 10.2217 11.2057 10.3802L13.8659 22.2061L9.81237 23.265C8.38596 22.9254 5.44337 20.8003 5.87809 20.2026C6.3128 19.6049 8.54445 19.8741 9.81237 19.9647C9.90293 17.1571 9.90747 11.4334 9.20108 10.9987Z" fill="#223846"/>
<path d="M11.4619 10.3814C11.3713 10.297 11.2601 10.2603 11.2158 10.2525L11.2751 10.6942L14.2008 15.0962C14.9788 17.9494 16.5032 23.462 16.3767 22.6863C16.2501 21.9106 16.003 20.6164 15.8953 20.0663L14.7147 15.0962L14.2008 14.3967C13.7102 13.6292 12.6686 11.9972 12.4262 11.6094C12.1232 11.1246 11.5752 10.4869 11.4619 10.3814Z" fill="#80A7BC"/>
<path d="M7.62091 10.7479C6.66128 10.7095 4.97041 10.8939 4.24494 10.9908C3.83745 11.7311 3.6856 14.2473 3.7114 15.2153C3.72963 15.8992 3.94303 19.5682 4.23255 21.2907C4.26796 21.3372 4.47902 20.8913 4.941 20.2201C5.40298 19.5489 8.65211 19.5966 9.81894 19.9489L9.81894 19.1229C8.77471 18.8689 6.54822 18.9393 5.3786 18.742C4.04939 18.5178 7.94454 17.4497 9.81894 17.7886L9.81894 16.2478C8.97779 16.2478 7.0381 16.1726 5.554 15.8069C3.94069 15.4093 7.72136 14.707 9.81894 14.6275L9.73074 13.3213C9.73074 13.3213 6.9443 13.3632 5.29034 13.2316C3.63637 13.0999 6.04091 11.9315 9.5882 11.9315L9.31629 10.9908C9.15101 10.9259 8.58055 10.7863 7.62091 10.7479Z" fill="#80A7BC"/>
</svg>
