<svg width="63" height="213" viewBox="0 0 63 213" fill="none" xmlns="http://www.w3.org/2000/svg">
<path d="M5.14783 19.9202L8.80945 19.6463L10.0634 23.5228L5.14783 21.2404L5.14783 19.9202Z" fill="#133254"/>
<path d="M13.5225 27.6676L13.1038 25.7533L16.2771 23.0926L19.1159 25.3645L13.5225 27.6676Z" fill="#133254"/>
<path d="M18.7384 53.307C20.9018 60.8787 25.8109 73.6577 27.9951 79.1007L43.1801 66.4119C35.4836 51.9548 19.8201 23.3528 18.7384 24.6009C17.6567 25.849 14.6821 26.7851 13.33 27.0972C13.2607 29.3507 13.1636 34.2321 13.33 35.7298C13.5381 37.602 16.0342 43.8424 18.7384 53.307Z" fill="#183B51"/>
<path d="M21.6421 47.9356L14.1535 27.4874L16.4425 26.7401L19.8929 31.5844L31.8123 49.424C31.8123 49.424 28.762 50.6948 27.8435 52.4006C26.5445 54.8131 28.8357 59.3461 28.8357 59.3461L27.3095 58.56L21.6421 47.9356Z" fill="#235168"/>
<path d="M33.821 212.679L35.5049 180.489L54.7111 209.316L33.821 212.679Z" fill="#101212"/>
<path d="M27.2862 167.065L26.2544 126.929L52.2851 125.447C52.3799 125.578 52.2194 124.076 54.3118 131.151C56.4042 138.225 53.6946 144.799 51.8223 147.885C52.0299 154.278 52.5945 168.062 53.1923 172.047C53.7902 176.033 56.7627 197.953 58.1743 208.415C54.4793 209.869 46.4916 211.903 44.1003 208.415C41.7089 204.928 31.8945 179.396 27.2862 167.065Z" fill="#18364B"/>
<path fill-rule="evenodd" clip-rule="evenodd" d="M26.2544 126.929L27.2862 167.065C28.3457 169.9 29.6803 173.433 31.1367 177.235L29.0614 167.065L28.4789 150.3L28.1693 126.929L26.2544 126.929Z" fill="#9BAACF"/>
<path d="M50.3373 67.707C51.3388 67.2395 52.237 63.3986 53.1272 62.3415L38.93 61.4288L34.5292 68.9882C39.1474 68.1536 49.3358 68.1744 50.3373 67.707Z" fill="#143349"/>
<path d="M30.4125 52.737C31.2115 51.7929 33.1815 50.1676 34.1388 49.7105L43.1099 60.4264C42.6912 61.236 41.3846 62.9557 39.5086 63.3577C37.6326 63.7597 36.144 62.7158 35.5077 62.3698C34.2508 61.5774 33.7841 61.0963 33.0598 60.4263C32.3354 59.7563 30.993 57.5259 30.4124 56.4944C29.9736 55.4049 29.6135 53.6812 30.4125 52.737Z" fill="#112839"/>
<path d="M35.3235 60.5295C34.5235 60.1295 30.1924 55.4903 30.6977 53.7013C31.2031 51.9123 35.8839 49.0552 35.8839 49.0552C35.8839 49.0552 34.1455 47.6464 34.6105 47.1528C35.0756 46.6593 40.3839 45.5552 40.3839 45.5552C40.3839 45.5552 40.7145 44.1074 41.3839 43.5552C42.0534 43.0031 46.884 41.5552 46.884 41.5552L55.884 50.0552L49.384 61.0552L42.4464 61.0552C36.8129 62.1504 36.1235 60.9295 35.3235 60.5295Z" fill="#254F70"/>
<path d="M49.3803 47.0552C48.9803 48.6552 44.2136 50.3885 41.8803 51.0552L41.8803 52.5552C42.7136 52.7219 44.8803 53.2552 46.8803 54.0552C49.3803 55.0552 46.8803 56.5552 42.8803 59.0552C39.6803 61.0552 41.2136 62.5552 42.3803 63.0552L54.3803 63.5552C56.3803 61.5552 60.6803 56.2552 61.8803 51.0552C63.3803 44.5552 53.3803 38.5552 49.3803 38.0552C46.1803 37.6552 46.047 39.8885 46.3803 41.0552C47.547 42.3885 49.7803 45.4552 49.3803 47.0552Z" fill="#161B22"/>
<path d="M21.2537 60.9809C22.0553 63.4659 25.6961 72.9387 27.4163 77.3644C30.5618 73.7821 36.9774 66.5335 34.8749 67.8536C32.7724 69.1738 29.9611 67.8541 29.163 67.8536C24.6408 65.2975 23.9086 61.3953 22.6554 58.0089L13.3374 32.5726L13.3374 36.1299C13.3374 36.4906 15.2413 42.0254 16.1933 44.7476C17.5461 49.1233 20.452 58.4958 21.2537 60.9809Z" fill="#121A31"/>
<path d="M31.3428 147.534L32.8892 147.844L35.8909 147.844L37.3644 147.408L37.3644 146.682C37.3644 146.682 35.7941 147.355 33.7355 147.408C31.6769 147.461 29.6666 146.286 28.9188 145.692L29.9966 146.682L31.3428 147.534Z" fill="#031120"/>
<path d="M30.635 134.41L30.635 132.628L36.8234 133.609C36.828 134.294 36.9428 135.901 37.3651 136.851C37.7874 137.801 37.5411 143.801 37.3651 146.683C37.0132 146.903 35.7948 147.356 33.7361 147.408C31.6775 147.461 29.6673 146.287 28.9195 145.693C28.8755 143.406 28.8139 138.554 28.9195 137.445C29.0251 136.337 30.1072 134.96 30.635 134.41Z" fill="#254D6E"/>
<path d="M49.3803 66.0552C36.1803 64.4552 29.2631 70.7145 28.2631 73.5478C24.7631 85.0478 19.4803 108.455 19.8803 114.055C20.2803 119.655 24.3803 125.055 26.3803 127.055C39.5803 128.255 49.2137 126.555 52.3803 125.555C52.3803 125.555 51.586 117.85 52.3803 113.02C52.8682 110.053 54.3803 105.586 54.3803 105.586C54.3803 105.586 56.417 93.6726 56.0939 85.1029C56.0237 83.2398 54.6134 73.9871 54.3803 72.1374C53.9194 68.4798 52.3962 68.5117 51.8469 67.8525C51.2975 67.1933 49.3803 66.0552 49.3803 66.0552Z" fill="#193B57"/>
<path d="M48.3657 210.122C48.3657 210.122 45.0686 172.047 45.0686 164.1C45.0686 156.153 48.7931 131.151 48.7931 131.151L26.2544 130.322L26.2544 126.929L52.2851 125.447C52.3799 125.578 52.2194 124.076 54.3118 131.151C56.4042 138.225 53.6946 144.799 51.8223 147.885C52.0299 154.278 52.5945 168.062 53.1923 172.047C53.7902 176.033 56.7627 197.953 58.1743 208.415C54.4793 209.869 48.3657 210.122 48.3657 210.122Z" fill="#031120"/>
<path d="M30.3993 132.626C29.5434 131.704 29.6243 128.335 29.7717 126.765L37.4386 128.022L36.9004 133.614C35.09 133.668 31.2551 133.548 30.3993 132.626Z" fill="#183B54"/>
<path d="M29.8282 130.371C29.6494 129.655 29.7537 127.986 29.8282 127.241L29.8282 126.705L32.4211 127.778L32.5552 131.622C31.7207 131.503 30.0071 131.086 29.8282 130.371Z" fill="#9BAACF"/>
<path d="M28.8803 83.0552C29.2803 74.2552 40.047 72.0552 45.3803 72.0552L46.3803 72.5552C47.1803 72.9552 47.3803 83.3886 47.3803 88.5552C45.7136 91.8886 42.1803 99.3552 41.3803 102.555C40.3803 106.555 41.3803 112.555 41.3803 116.555C41.3803 119.755 38.7136 125.555 37.3803 128.055C35.7136 128.055 32.0803 127.955 30.8803 127.555C29.6803 127.155 29.047 125.722 28.8803 125.055C28.7136 114.722 28.4803 91.8552 28.8803 83.0552Z" fill="#235071"/>
<path d="M49.4084 47.271C50.157 45.915 47.8505 42.6938 46.5637 41.1651C46.0505 40.5554 46.2685 38.877 47.1811 38.3414C48.5631 37.5302 51.4531 38.5078 52.6214 39.0951C50.0617 38.2603 46.1084 38.5459 48.821 40.9419C52.8527 44.5031 51.061 47.271 50.1567 48.2185C49.2524 49.1661 42.3766 51.5624 42.1484 51.4957C41.9658 51.4423 42.0723 51.1977 42.1484 51.0821C44.2565 50.3767 48.6597 48.627 49.4084 47.271Z" fill="#80A7BC"/>
<path d="M43.6702 42.6368L46.1037 41.8494C47.286 43.2174 47.8271 44.0729 48.6327 45.7265L43.9445 45.5953L41.6422 43.46L43.6702 42.6368Z" fill="#80A7BC"/>
<path d="M35.7705 48.933C34.5556 47.9017 34.4896 47.4211 34.5556 47.2533C34.6419 47.1398 34.5783 47.0853 35.4619 46.7806C36.0273 46.5857 37.8211 46.1448 38.0105 46.1026C37.8163 46.1844 35.3234 46.9225 35.2242 47.2533C35.1782 47.4067 35.3096 47.5785 35.5829 47.8135C35.83 48.0258 36.6177 48.4286 37.0062 48.6382L36.3152 49.1939L38.8463 50.3419C37.9302 50.908 36.4853 51.4863 35.0932 52.4176C33.5194 53.4705 32.5242 55.2538 31.7905 56.5682L31.7853 56.5775C31.2296 55.8807 30.8707 55.0079 30.7587 54.5845C30.6599 54.2108 30.626 53.9244 30.725 53.6295C30.8682 53.1392 31.5285 52.2844 32.8643 51.2289C33.6277 50.6256 35.2845 49.6178 36.0208 49.1325L35.7705 48.933Z" fill="#80A7BC"/>
<path d="M11.1033 0.0511155C11.1036 0.0537587 11.1036 0.0564957 11.1033 0.0593252L11.1033 9.71569L13.8827 22.6623L9.77522 23.7142L4.84242 11.1219L-1.90682e-08 3.16928C1.8675 0.774385 8.98804 -0.249542 11.1033 0.0511155Z" fill="#11151C"/>
<path d="M9.20108 10.9987C8.49469 10.5641 5.60109 10.8176 4.24258 10.9987C3.26447 13.1181 3.83504 18.81 4.24258 21.391L9.20108 23.9558L13.1337 25.9299C14.9903 25.2733 15.8877 25.0969 16.3224 23.9558C16.7571 22.8146 15.3031 17.7129 14.7145 15.1091C13.6503 13.7959 11.952 10.5584 11.2993 10.2828C11.2275 10.2525 11.1831 10.2217 11.2057 10.3802L13.8659 22.2061L9.81237 23.265C8.38596 22.9254 5.44337 20.8003 5.87809 20.2026C6.3128 19.6049 8.54445 19.8741 9.81237 19.9647C9.90293 17.1571 9.90747 11.4334 9.20108 10.9987Z" fill="#223846"/>
<path d="M18.9018 24.5428C20.7467 25.5685 32.1261 45.7141 33.0275 47.8252L18.2909 26.0857L15.9589 26.3246L17.8135 25.3814C18.2281 25.1086 18.4466 24.9423 18.7979 24.5774L18.9018 24.5428Z" fill="#80A7BC"/>
<path d="M11.4619 10.3814C11.3713 10.297 11.2601 10.2603 11.2158 10.2525L11.2751 10.6942L14.2008 15.0962C14.9788 17.9494 16.5032 23.462 16.3767 22.6863C16.2501 21.9106 16.003 20.6164 15.8953 20.0663L14.7147 15.0962L14.2008 14.3967C13.7102 13.6292 12.6686 11.9972 12.4262 11.6094C12.1232 11.1246 11.5752 10.4869 11.4619 10.3814Z" fill="#80A7BC"/>
<path d="M7.62091 10.7479C6.66128 10.7095 4.97041 10.8939 4.24494 10.9908C3.83745 11.7311 3.6856 14.2473 3.7114 15.2153C3.72963 15.8992 3.94303 19.5682 4.23255 21.2907C4.26796 21.3372 4.47902 20.8913 4.941 20.2201C5.40298 19.5489 8.65211 19.5966 9.81894 19.9489L9.81894 19.1229C8.77471 18.8689 6.54822 18.9393 5.3786 18.742C4.04939 18.5178 7.94454 17.4497 9.81894 17.7886L9.81894 16.2478C8.97779 16.2478 7.0381 16.1726 5.554 15.8069C3.94069 15.4093 7.72136 14.707 9.81894 14.6275L9.73074 13.3213C9.73074 13.3213 6.9443 13.3632 5.29034 13.2316C3.63637 13.0999 6.04091 11.9315 9.5882 11.9315L9.31629 10.9908C9.15101 10.9259 8.58055 10.7863 7.62091 10.7479Z" fill="#80A7BC"/>
<path d="M28.2633 73.5478C29.2633 70.7145 36.1805 64.4552 49.3805 66.0552L44.8067 71.9139C44.8067 71.9139 41.2688 72.198 39.0922 72.7998C37.7022 73.1842 35.6154 74.0443 35.6154 74.0443C35.6154 74.0443 32.9939 75.9247 31.9768 79.8323C31.6445 81.1089 31.351 83.9779 31.0906 87.6144L31.1431 112.403L30.2894 102.506C29.9964 109.126 29.7654 115.23 29.5749 117.797C28.9629 120.857 28.8394 120.686 28.8394 120.686L28.8394 103.055L28.8394 83.918C28.8394 83.918 28.9557 81.9424 29.3177 80.7412C29.4846 80.1875 29.7434 79.0392 30.1656 78.0021C30.8934 76.2143 32.6898 73.7525 32.6898 73.7525C31.1402 74.3883 29.453 76.6574 28.2633 81.1775L26.2304 88.3132L22.5615 102.506L19.8805 114.055C18.85 115.533 23.9126 86.2637 28.2633 73.5478Z" fill="#9BAACF"/>
<path d="M25.6524 113.045L27.5436 96.8431L27.5436 95.2042L25.6524 97.4737C24.1814 102.643 21.2899 113.663 21.4916 116.386C21.6933 119.11 24.6132 122.9 26.5465 124.623L25.6524 113.045Z" fill="#234A66"/>
<path d="M36.6731 133.467C36.5296 133.607 32.8109 133.29 31.7991 133.038C31.7991 133.038 34.2252 132.93 35.2589 132.08C35.802 131.633 37.3879 128.992 37.3879 128.992C37.3418 129.685 36.8163 133.327 36.6731 133.467Z" fill="#031120"/>
<path d="M53.0792 70.4856C53.0792 70.4856 54.8783 79.6259 55.0912 86.0526C55.2446 90.6819 54.3801 98.7604 54.3801 98.7604C54.3801 98.7604 51.0773 105.784 50.6435 110.621C50.4625 112.639 50.5682 113.785 50.6435 115.81C50.7462 118.572 51.2647 122.861 51.2647 122.861L52.3801 125.553C52.3801 125.553 51.5858 117.849 52.3801 113.018C52.8679 110.051 54.3801 105.584 54.3801 105.584C54.3801 105.584 56.4168 93.6708 56.0937 85.101C56.0234 83.238 54.6132 73.9853 54.3801 72.1356C53.9192 68.478 52.396 68.5099 51.8466 67.8507C51.2973 67.1915 53.0792 70.4856 53.0792 70.4856Z" fill="#081D39"/>
<path d="M48.5239 130.655L39.8645 130.655C41.1153 133.253 43.6169 139.344 43.6169 142.923C43.6169 146.502 41.6926 158.173 40.7304 163.561L40.7304 201.374L43.6169 210.034L49.3898 210.034L45.926 167.458C46.5515 161.637 47.9466 148.58 48.5239 142.923C49.1013 137.265 48.7645 132.387 48.5239 130.655Z" fill="#0E1C29"/>
<path fill-rule="evenodd" clip-rule="evenodd" d="M48.5331 88.5565C48.5331 88.5565 47.1484 73.5212 47.0492 73.2441C46.9668 73.0137 46.5564 72.6908 46.4207 72.5887C46.4064 72.5746 46.3918 72.5638 46.3771 72.5565C46.3771 72.5565 46.3933 72.5681 46.4207 72.5887C47.1844 73.3392 47.3771 83.485 47.3771 88.5565C46.9011 89.5084 46.273 90.7973 45.5997 92.2277C44.5349 94.4898 43.3574 97.1057 42.4908 99.3017C41.9864 100.58 41.5873 101.715 41.3771 102.556C40.6937 105.29 40.9443 108.957 41.1715 112.282C41.2768 113.823 41.3771 115.29 41.3771 116.556C41.3771 119.756 37.3771 128.056 37.3771 128.056L40.3833 123.821L42.2966 118.023C42.2966 118.023 41.6355 109.056 43.069 102.556C44.3331 96.8252 48.5331 88.5565 48.5331 88.5565Z" fill="#081D39"/>
<path d="M44.2935 91.2478C43.9426 94.112 42.4908 99.3017 42.4908 99.3017C43.3574 97.1057 44.5349 94.4898 45.5997 92.2277C45.5997 92.2277 46.0097 90.2971 45.5997 89.1796C45.2937 88.3457 44.6813 88.1165 44.2935 87.3173C43.2293 85.1246 44.2935 81.0764 44.2935 81.0764C44.2935 81.0764 42.8006 84.8481 43.069 87.3173C43.2427 88.9156 44.6443 88.3836 44.2935 91.2478Z" fill="#081D39"/>
<path d="M36.203 136.451L35.7913 133.609L36.8226 133.609C36.8272 134.294 36.9421 135.901 37.3644 136.851C37.7866 137.801 37.5403 143.801 37.3644 146.682C37.0125 146.902 35.8561 147.183 35.8561 147.183C35.8561 147.183 36.6585 146.682 36.823 145.973C36.9371 143.394 36.8235 138.819 36.8235 138.819L36.203 136.451Z" fill="#031120"/>
<path d="M30.635 134.41L30.635 135.87C30.635 135.87 29.8872 136.848 29.7262 138.234C29.489 140.273 29.4376 141.658 29.2835 143.229C29.1939 144.143 29.25 144.867 29.734 145.693C29.9975 146.143 30.635 146.677 30.635 146.677C30.635 146.677 29.6673 146.287 28.9195 145.693C28.8755 143.406 28.8139 138.554 28.9195 137.445C29.0251 136.337 30.1072 134.96 30.635 134.41Z" fill="#9BAACF"/>
<path d="M31.5362 145.612C31.5228 144.478 32.2577 137.58 31.9731 137.58C31.7668 137.58 31.5496 139.187 31.5496 139.187C31.5496 139.187 30.8276 145.855 30.6115 146.746C31.0251 146.927 32.7034 147.509 32.4611 147.392C32.2188 147.275 31.5496 146.746 31.5362 145.612Z" fill="#031120"/>
</svg>
