<svg width="50" height="189" viewBox="0 0 50 189" fill="none" xmlns="http://www.w3.org/2000/svg">
<path d="M5.73841 29.3071C7.90176 36.8788 12.8109 49.6578 14.9951 55.1008L30.1801 42.4119C22.4836 27.9549 6.82009 -0.647135 5.73841 0.600952C4.65674 1.84904 1.68214 2.78517 0.330044 3.09722C0.260705 5.35073 0.163632 10.2322 0.330043 11.7299C0.538058 13.602 3.03423 19.8424 5.73841 29.3071Z" fill="#183B51"/>
<path d="M8.64212 23.9356L1.15347 3.4875L3.44247 2.74011L6.8929 7.58443L18.8123 25.4241C18.8123 25.4241 15.762 26.6949 14.8435 28.4007C13.5445 30.8131 15.8357 35.3462 15.8357 35.3462L14.3095 34.56L8.64212 23.9356Z" fill="#235168"/>
<path d="M20.821 188.679L22.5049 156.489L41.7111 185.316L20.821 188.679Z" fill="#101212"/>
<path d="M14.2862 143.065L13.2544 102.929L39.2851 101.447C39.3799 101.578 39.2194 100.076 41.3118 107.151C43.4042 114.225 40.6946 120.799 38.8223 123.885C39.0299 130.278 39.5945 144.062 40.1923 148.047C40.7902 152.033 43.7627 173.953 45.1743 184.416C41.4793 185.869 33.4916 187.903 31.1003 184.416C28.7089 180.928 18.8945 155.396 14.2862 143.065Z" fill="#18364B"/>
<path fill-rule="evenodd" clip-rule="evenodd" d="M13.2544 102.929L14.2862 143.065C15.3457 145.9 16.6803 149.433 18.1367 153.235L16.0614 143.065L15.4789 126.3L15.1693 102.929L13.2544 102.929Z" fill="#9BAACF"/>
<path d="M37.3373 43.707C38.3388 43.2396 39.237 39.3986 40.1272 38.3415L25.93 37.4289L21.5292 44.9883C26.1474 44.1537 36.3358 44.1745 37.3373 43.707Z" fill="#143349"/>
<path d="M17.4125 28.7371C18.2115 27.7929 20.1815 26.1677 21.1388 25.7106L30.1099 36.4264C29.6912 37.236 28.3846 38.9557 26.5086 39.3577C24.6326 39.7597 23.144 38.7158 22.5077 38.3699C21.2508 37.5775 20.7841 37.0964 20.0598 36.4264C19.3354 35.7564 17.993 33.526 17.4124 32.4945C16.9736 31.405 16.6135 29.6813 17.4125 28.7371Z" fill="#112839"/>
<path d="M22.3235 36.5296C21.5235 36.1296 17.1924 31.4903 17.6977 29.7013C18.2031 27.9123 22.8839 25.0553 22.8839 25.0553C22.8839 25.0553 21.1455 23.6464 21.6105 23.1529C22.0756 22.6593 27.3839 21.5553 27.3839 21.5553C27.3839 21.5553 27.7145 20.1075 28.3839 19.5553C29.0534 19.0031 33.884 17.5553 33.884 17.5553L42.884 26.0553L36.384 37.0553L29.4464 37.0553C23.8129 38.1504 23.1235 36.9296 22.3235 36.5296Z" fill="#254F70"/>
<path d="M36.3803 23.0553C35.9803 24.6553 31.2136 26.3886 28.8803 27.0553L28.8803 28.5553C29.7136 28.722 31.8803 29.2553 33.8803 30.0553C36.3803 31.0553 33.8803 32.5553 29.8803 35.0553C26.6803 37.0553 28.2136 38.5553 29.3803 39.0553L41.3803 39.5553C43.3803 37.5553 47.6803 32.2553 48.8803 27.0553C50.3803 20.5552 40.3803 14.5553 36.3803 14.0553C33.1803 13.6553 33.047 15.8886 33.3803 17.0553C34.547 18.3886 36.7803 21.4553 36.3803 23.0553Z" fill="#161B22"/>
<path d="M8.25366 36.9809C9.05529 39.466 12.6961 48.9387 14.4163 53.3645C17.5618 49.7822 23.9774 42.5335 21.8749 43.8537C19.7724 45.1739 16.9611 43.8542 16.163 43.8537C11.6408 41.2976 10.9086 37.3954 9.65535 34.0089L0.337402 8.57263L0.337402 12.13C0.337402 12.4907 2.24134 18.0254 3.1933 20.7477C4.54607 25.1233 7.45202 34.4958 8.25366 36.9809Z" fill="#121A31"/>
<path d="M18.3428 123.534L19.8892 123.844L22.8909 123.844L24.3644 123.408L24.3644 122.682C24.3644 122.682 22.7941 123.355 20.7355 123.408C18.6769 123.461 16.6666 122.286 15.9188 121.692L16.9966 122.682L18.3428 123.534Z" fill="#031120"/>
<path d="M17.635 110.41L17.635 108.629L23.8234 109.609C23.828 110.294 23.9428 111.901 24.3651 112.851C24.7874 113.802 24.5411 119.801 24.3651 122.683C24.0132 122.903 22.7948 123.356 20.7361 123.408C18.6775 123.461 16.6673 122.287 15.9195 121.693C15.8755 119.406 15.8139 114.554 15.9195 113.445C16.0251 112.337 17.1072 110.96 17.635 110.41Z" fill="#254D6E"/>
<path d="M36.3803 42.0552C23.1803 40.4552 16.2631 46.7146 15.2631 49.5479C11.7631 61.0479 6.48034 84.4552 6.88034 90.0552C7.28034 95.6552 11.3803 101.055 13.3803 103.055C26.5803 104.255 36.2137 102.555 39.3803 101.555C39.3803 101.555 38.586 93.8504 39.3803 89.02C39.8682 86.0533 41.3803 81.5856 41.3803 81.5856C41.3803 81.5856 43.417 69.6727 43.0939 61.1029C43.0237 59.2399 41.6134 49.9872 41.3803 48.1375C40.9194 44.4799 39.3962 44.5118 38.8469 43.8526C38.2975 43.1934 36.3803 42.0552 36.3803 42.0552Z" fill="#193B57"/>
<path d="M35.3657 186.122C35.3657 186.122 32.0686 148.047 32.0686 140.1C32.0686 132.153 35.7931 107.151 35.7931 107.151L13.2544 106.323L13.2544 102.929L39.2851 101.447C39.3799 101.578 39.2194 100.076 41.3118 107.151C43.4042 114.225 40.6946 120.799 38.8223 123.885C39.0299 130.278 39.5945 144.062 40.1923 148.047C40.7902 152.033 43.7627 173.953 45.1743 184.416C41.4793 185.869 35.3657 186.122 35.3657 186.122Z" fill="#031120"/>
<path d="M17.3993 108.626C16.5434 107.704 16.6243 104.335 16.7717 102.766L24.4386 104.022L23.9004 109.614C22.09 109.669 18.2551 109.548 17.3993 108.626Z" fill="#183B54"/>
<path d="M16.8282 106.371C16.6494 105.655 16.7537 103.986 16.8282 103.241L16.8282 102.705L19.4211 103.778L19.5552 107.622C18.7207 107.503 17.0071 107.086 16.8282 106.371Z" fill="#9BAACF"/>
<path d="M15.8803 59.0553C16.2803 50.2553 27.047 48.0553 32.3803 48.0553L33.3803 48.5553C34.1803 48.9553 34.3803 59.3886 34.3803 64.5553C32.7136 67.8886 29.1803 75.3553 28.3803 78.5553C27.3803 82.5553 28.3803 88.5553 28.3803 92.5553C28.3803 95.7553 25.7136 101.555 24.3803 104.055C22.7136 104.055 19.0803 103.955 17.8803 103.555C16.6803 103.155 16.047 101.722 15.8803 101.055C15.7136 90.722 15.4803 67.8553 15.8803 59.0553Z" fill="#235071"/>
<path d="M36.4084 23.271C37.157 21.915 34.8505 18.6939 33.5637 17.1652C33.0505 16.5554 33.2685 14.8771 34.1811 14.3414C35.5631 13.5303 38.4531 14.5078 39.6214 15.0952C37.0617 14.2604 33.1084 14.546 35.821 16.942C39.8527 20.5032 38.061 23.271 37.1567 24.2186C36.2524 25.1661 29.3766 27.5624 29.1484 27.4958C28.9658 27.4424 29.0723 27.1978 29.1484 27.0822C31.2565 26.3768 35.6597 24.627 36.4084 23.271Z" fill="#80A7BC"/>
<path d="M30.6702 18.6368L33.1037 17.8495C34.286 19.2175 34.8271 20.073 35.6327 21.7266L30.9445 21.5954L28.6422 19.46L30.6702 18.6368Z" fill="#80A7BC"/>
<path d="M22.7705 24.933C21.5556 23.9018 21.4896 23.4211 21.5556 23.2534C21.6419 23.1399 21.5783 23.0854 22.4619 22.7807C23.0273 22.5857 24.8211 22.1448 25.0105 22.1027C24.8163 22.1845 22.3234 22.9225 22.2242 23.2534C22.1782 23.4067 22.3096 23.5785 22.5829 23.8135C22.83 24.0259 23.6177 24.4286 24.0062 24.6382L23.3152 25.1939L25.8463 26.342C24.9302 26.9081 23.4853 27.4864 22.0932 28.4177C20.5194 29.4706 19.5242 31.2538 18.7905 32.5683L18.7853 32.5776C18.2296 31.8807 17.8707 31.008 17.7587 30.5846C17.6599 30.2108 17.626 29.9244 17.725 29.6296C17.8682 29.1393 18.5285 28.2845 19.8643 27.2289C20.6277 26.6257 22.2845 25.6179 23.0208 25.1325L22.7705 24.933Z" fill="#80A7BC"/>
<path d="M5.90179 0.542847C7.74666 1.56854 19.1261 21.7142 20.0275 23.8253L5.2909 2.08573L2.95886 2.32462L4.81351 1.38147C5.2281 1.10862 5.44657 0.942349 5.79791 0.577473L5.90179 0.542847Z" fill="#80A7BC"/>
<path d="M15.2633 49.5479C16.2633 46.7146 23.1805 40.4552 36.3805 42.0552L31.8067 47.914C31.8067 47.914 28.2688 48.198 26.0922 48.7999C24.7022 49.1843 22.6154 50.0444 22.6154 50.0444C22.6154 50.0444 19.9939 51.9248 18.9768 55.8324C18.6445 57.1089 18.351 59.9779 18.0906 63.6145L18.1431 88.4034L17.2894 78.5061C16.9964 85.1256 16.7654 91.2302 16.5749 93.7976C15.9629 96.8574 15.8394 96.6859 15.8394 96.6859L15.8394 79.0552L15.8394 59.9181C15.8394 59.9181 15.9557 57.9425 16.3177 56.7413C16.4846 56.1876 16.7434 55.0393 17.1656 54.0022C17.8934 52.2144 19.6898 49.7526 19.6898 49.7526C18.1402 50.3884 16.453 52.6575 15.2633 57.1775L13.2304 64.3133L9.56147 78.5061L6.88052 90.0552C5.84999 91.5327 10.9126 62.2637 15.2633 49.5479Z" fill="#9BAACF"/>
<path d="M12.6524 89.045L14.5436 72.8432L14.5436 71.2042L12.6524 73.4737C11.1814 78.6432 8.28986 89.663 8.4916 92.3865C8.69333 95.1099 11.6132 98.9001 13.5465 100.623L12.6524 89.045Z" fill="#234A66"/>
<path d="M23.6731 109.467C23.5296 109.607 19.8109 109.29 18.7991 109.038C18.7991 109.038 21.2252 108.93 22.2589 108.08C22.802 107.633 24.3879 104.993 24.3879 104.993C24.3418 105.685 23.8163 109.327 23.6731 109.467Z" fill="#031120"/>
<path d="M40.0792 46.4856C40.0792 46.4856 41.8783 55.6259 42.0912 62.0527C42.2446 66.682 41.3801 74.7605 41.3801 74.7605C41.3801 74.7605 38.0773 81.7842 37.6435 86.6211C37.4625 88.6394 37.5682 89.7851 37.6435 91.8101C37.7462 94.5723 38.2647 98.8606 38.2647 98.8606L39.3801 101.553C39.3801 101.553 38.5858 93.8486 39.3801 89.0182C39.8679 86.0515 41.3801 81.5837 41.3801 81.5837C41.3801 81.5837 43.4168 69.6709 43.0937 61.1011C43.0234 59.2381 41.6132 49.9854 41.3801 48.1357C40.9192 44.4781 39.396 44.51 38.8466 43.8508C38.2973 43.1916 40.0792 46.4856 40.0792 46.4856Z" fill="#081D39"/>
<path d="M35.5239 106.655L26.8645 106.655C28.1153 109.253 30.6169 115.344 30.6169 118.923C30.6169 122.502 28.6926 134.173 27.7304 139.561L27.7304 177.374L30.6169 186.034L36.3898 186.034L32.926 143.458C33.5515 137.637 34.9466 124.581 35.5239 118.923C36.1013 113.266 35.7645 108.387 35.5239 106.655Z" fill="#0E1C29"/>
<path fill-rule="evenodd" clip-rule="evenodd" d="M35.5331 64.5565C35.5331 64.5565 34.1484 49.5212 34.0492 49.2442C33.9668 49.0137 33.5564 48.6908 33.4207 48.5888C33.4064 48.5747 33.3918 48.5639 33.3771 48.5565C33.3771 48.5565 33.3933 48.5681 33.4207 48.5888C34.1844 49.3392 34.3771 59.4851 34.3771 64.5565C33.9011 65.5084 33.273 66.7974 32.5997 68.2278C31.5349 70.4899 30.3574 73.1058 29.4908 75.3017C28.9864 76.5797 28.5873 77.7155 28.3771 78.5565C27.6937 81.29 27.9443 84.9575 28.1715 88.2825C28.2768 89.823 28.3771 91.29 28.3771 92.5565C28.3771 95.7565 24.3771 104.057 24.3771 104.057L27.3833 99.8213L29.2966 94.023C29.2966 94.023 28.6355 85.0556 30.069 78.5565C31.3331 72.8253 35.5331 64.5565 35.5331 64.5565Z" fill="#081D39"/>
<path d="M31.2935 67.2479C30.9426 70.1121 29.4908 75.3017 29.4908 75.3017C30.3574 73.1058 31.5349 70.4899 32.5997 68.2278C32.5997 68.2278 33.0097 66.2972 32.5997 65.1797C32.2937 64.3457 31.6813 64.1166 31.2935 63.3173C30.2293 61.1247 31.2935 57.0764 31.2935 57.0764C31.2935 57.0764 29.8006 60.8482 30.069 63.3173C30.2427 64.9157 31.6443 64.3837 31.2935 67.2479Z" fill="#081D39"/>
<path d="M23.203 112.451L22.7913 109.609L23.8226 109.609C23.8272 110.294 23.9421 111.901 24.3644 112.851C24.7866 113.801 24.5403 119.801 24.3644 122.683C24.0125 122.902 22.8561 123.183 22.8561 123.183C22.8561 123.183 23.6585 122.683 23.823 121.973C23.9371 119.394 23.8235 114.819 23.8235 114.819L23.203 112.451Z" fill="#031120"/>
<path d="M17.635 110.41L17.635 111.87C17.635 111.87 16.8872 112.848 16.7262 114.234C16.489 116.273 16.4376 117.658 16.2835 119.229C16.1939 120.143 16.25 120.867 16.734 121.693C16.9975 122.143 17.635 122.677 17.635 122.677C17.635 122.677 16.6673 122.287 15.9195 121.693C15.8755 119.406 15.8139 114.554 15.9195 113.445C16.0251 112.337 17.1072 110.96 17.635 110.41Z" fill="#9BAACF"/>
<path d="M18.5362 121.612C18.5228 120.478 19.2577 113.58 18.9731 113.58C18.7668 113.58 18.5496 115.187 18.5496 115.187C18.5496 115.187 17.8276 121.855 17.6115 122.746C18.0251 122.927 19.7034 123.509 19.4611 123.392C19.2188 123.275 18.5496 122.746 18.5362 121.612Z" fill="#031120"/>
</svg>
