<svg width="1788" height="190" viewBox="0 0 1788 190" fill="none" xmlns="http://www.w3.org/2000/svg">
<path d="M0.739998 156V8.99999H61.22C74.24 8.99999 85.37 11.1 94.61 15.3C103.99 19.5 111.2 25.52 116.24 33.36C121.28 41.2 123.8 50.51 123.8 61.29C123.8 72.07 121.28 81.38 116.24 89.22C111.2 97.06 103.99 103.08 94.61 107.28C85.37 111.48 74.24 113.58 61.22 113.58H15.86L28.04 100.77V156H0.739998ZM28.04 103.71L15.86 90.48H59.96C72 90.48 81.03 87.96 87.05 82.92C93.21 77.74 96.29 70.53 96.29 61.29C96.29 51.91 93.21 44.7 87.05 39.66C81.03 34.62 72 32.1 59.96 32.1H15.86L28.04 18.66V103.71Z" fill="#3778AC" fill-opacity="0.6"/>
<path d="M151.062 168V8.99999H211.542C224.562 8.99999 235.692 11.1 244.932 15.3C254.312 19.5 261.522 25.52 266.562 33.36C271.602 41.2 274.122 50.51 274.122 61.29C274.122 72.07 271.602 81.38 266.562 89.22C261.522 96.92 254.312 102.87 244.932 107.07C235.692 111.13 224.562 113.16 211.542 113.16H166.182L178.362 100.77V168H151.062ZM262.5 190L210.072 102.66H239.262L291.9 190H262.5ZM178.362 103.71L166.182 90.69H210.282C222.322 90.69 231.352 88.1 237.372 82.92C243.532 77.74 246.612 70.53 246.612 61.29C246.612 51.91 243.532 44.7 237.372 39.66C231.352 34.62 222.322 32.1 210.282 32.1H166.182L178.362 18.66V103.71Z" fill="#3778AC" fill-opacity="0.6"/>
<path d="M278.5 176.5L350.026 8.99999H376.906L448.5 170H419.94L357.796 23.49H368.716L306.64 176.5H278.5ZM314.326 121.98L321.676 100.56H401.056L408.406 121.98H314.326Z" fill="#3778AC" fill-opacity="0.6"/>
<path d="M484.398 185V32.1H435.678V8.99999H560.418V32.1H511.698V185H484.398Z" fill="#3778AC" fill-opacity="0.6"/>
<path d="M580.906 178.5V8.99999H608.206V178.5H580.906Z" fill="#3778AC" fill-opacity="0.6"/>
<path d="M693.537 158.1C682.057 158.1 671.067 156.49 660.567 153.27C650.067 149.91 641.737 145.64 635.577 140.46L645.027 119.25C650.907 123.87 658.187 127.72 666.867 130.8C675.547 133.88 684.437 135.42 693.537 135.42C701.237 135.42 707.467 134.58 712.227 132.9C716.987 131.22 720.487 128.98 722.727 126.18C724.967 123.24 726.087 119.95 726.087 116.31C726.087 111.83 724.477 108.26 721.257 105.6C718.037 102.8 713.837 100.63 708.657 99.09C703.617 97.41 697.947 95.87 691.647 94.47C685.487 93.07 679.257 91.46 672.957 89.64C666.797 87.68 661.127 85.23 655.947 82.29C650.907 79.21 646.777 75.15 643.557 70.11C640.337 65.07 638.727 58.63 638.727 50.79C638.727 42.81 640.827 35.53 645.027 28.95C649.367 22.23 655.877 16.91 664.557 12.99C673.377 8.92999 684.507 6.89999 697.947 6.89999C706.767 6.89999 715.517 8.02 724.197 10.26C732.877 12.5 740.437 15.72 746.877 19.92L738.267 41.13C731.687 37.21 724.897 34.34 717.897 32.52C710.897 30.56 704.177 29.58 697.737 29.58C690.177 29.58 684.017 30.49 679.257 32.31C674.637 34.13 671.207 36.51 668.967 39.45C666.867 42.39 665.817 45.75 665.817 49.53C665.817 54.01 667.357 57.65 670.437 60.45C673.657 63.11 677.787 65.21 682.827 66.75C688.007 68.29 693.747 69.83 700.047 71.37C706.347 72.77 712.577 74.38 718.737 76.2C725.037 78.02 730.707 80.4 735.747 83.34C740.927 86.28 745.057 90.27 748.137 95.31C751.357 100.35 752.967 106.72 752.967 114.42C752.967 122.26 750.797 129.54 746.457 136.26C742.257 142.84 735.747 148.16 726.927 152.22C718.107 156.14 706.977 158.1 693.537 158.1Z" fill="#3778AC" fill-opacity="0.6"/>
<path d="M883.357 8.99999H910.657V156H883.357V8.99999ZM807.337 156H780.037V8.99999H807.337V156ZM885.457 93H805.027V69.69H885.457V93Z" fill="#3778AC" fill-opacity="0.6"/>
<path d="M950.047 156V8.99999H1010.53C1023.55 8.99999 1034.68 11.1 1043.92 15.3C1053.3 19.5 1060.51 25.52 1065.55 33.36C1070.59 41.2 1073.11 50.51 1073.11 61.29C1073.11 72.07 1070.59 81.38 1065.55 89.22C1060.51 96.92 1053.3 102.87 1043.92 107.07C1034.68 111.13 1023.55 113.16 1010.53 113.16H965.167L977.347 100.77V156H950.047ZM1046.23 156L1009.06 102.66H1038.25L1075.63 156H1046.23ZM977.347 103.71L965.167 90.69H1009.27C1021.31 90.69 1030.34 88.1 1036.36 82.92C1042.52 77.74 1045.6 70.53 1045.6 61.29C1045.6 51.91 1042.52 44.7 1036.36 39.66C1030.34 34.62 1021.31 32.1 1009.27 32.1H965.167L977.347 18.66V103.71Z" fill="#3778AC" fill-opacity="0.6"/>
<path d="M1166.86 158.1C1146.7 158.1 1130.88 152.43 1119.4 141.09C1108.06 129.75 1102.39 113.37 1102.39 91.95V8.99999H1129.69V90.9C1129.69 106.02 1132.91 117.01 1139.35 123.87C1145.93 130.73 1155.17 134.16 1167.07 134.16C1178.97 134.16 1188.14 130.73 1194.58 123.87C1201.02 117.01 1204.24 106.02 1204.24 90.9V8.99999H1231.12V91.95C1231.12 113.37 1225.38 129.75 1213.9 141.09C1202.56 152.43 1186.88 158.1 1166.86 158.1Z" fill="#3778AC" fill-opacity="0.6"/>
<path d="M1296.51 156V32.1H1247.79V8.99999H1372.53V32.1H1323.81V156H1296.51Z" fill="#3778AC" fill-opacity="0.6"/>
<path d="M1393.02 156V8.99999H1420.32V156H1393.02Z" fill="#3778AC" fill-opacity="0.6"/>
<path d="M1539.32 0.179993L1527.14 46.8L1523.78 31.05C1528.68 31.05 1532.74 32.59 1535.96 35.67C1539.18 38.75 1540.79 42.88 1540.79 48.06C1540.79 53.24 1539.18 57.44 1535.96 60.66C1532.74 63.74 1528.75 65.28 1523.99 65.28C1518.95 65.28 1514.82 63.67 1511.6 60.45C1508.38 57.23 1506.77 53.1 1506.77 48.06C1506.77 46.38 1506.84 44.84 1506.98 43.44C1507.26 41.9 1507.75 40.08 1508.45 37.98C1509.15 35.88 1510.13 33.22 1511.39 30L1522.52 0.179993H1539.32Z" fill="#3778AC" fill-opacity="0.6"/>
<path d="M1558.84 156V137.73L1617.22 82.29C1622.12 77.67 1625.76 73.61 1628.14 70.11C1630.52 66.61 1632.06 63.39 1632.76 60.45C1633.6 57.37 1634.02 54.5 1634.02 51.84C1634.02 45.12 1631.71 39.94 1627.09 36.3C1622.47 32.52 1615.68 30.63 1606.72 30.63C1599.58 30.63 1593.07 31.89 1587.19 34.41C1581.45 36.93 1576.48 40.78 1572.28 45.96L1553.17 31.26C1558.91 23.56 1566.61 17.61 1576.27 13.41C1586.07 9.07 1596.99 6.89999 1609.03 6.89999C1619.67 6.89999 1628.91 8.64999 1636.75 12.15C1644.73 15.51 1650.82 20.34 1655.02 26.64C1659.36 32.94 1661.53 40.43 1661.53 49.11C1661.53 53.87 1660.9 58.63 1659.64 63.39C1658.38 68.01 1656 72.91 1652.5 78.09C1649 83.27 1643.89 89.08 1637.17 95.52L1586.98 143.19L1581.31 124.9H1667.2V156H1558.84Z" fill="#3778AC" fill-opacity="0.6"/>
<path d="M1729.15 148.1C1718.79 148.1 1708.64 146.63 1698.7 143.69C1688.9 140.61 1680.64 136.41 1673.92 131.09L1685.68 109.88C1691 114.22 1697.44 117.72 1705 120.38C1712.56 123.04 1720.47 124.37 1728.73 124.37C1738.53 124.37 1751.62 121.49 1751.62 121.49C1751.62 121.49 1759.81 118.97 1759.81 112.11C1759.81 105.39 1757.29 100.07 1752.25 96.15C1747.21 92.23 1739.09 90.27 1727.89 90.27H1714.45V71.58L1756.45 21.6L1760.02 31.89H1681.06V8.99999H1781.23V27.27L1739.23 77.25L1724.95 68.85H1733.14C1751.2 68.85 1764.71 72.91 1773.67 81.03C1782.77 89.01 1787.32 99.3 1787.32 111.9C1787.32 120.16 1785.22 127.79 1781.02 134.79C1776.82 141.79 1770.38 141.46 1761.7 145.8C1753.16 150 1742.31 148.1 1729.15 148.1Z" fill="#3778AC" fill-opacity="0.6"/>
</svg>
