<?xml version="1.0" encoding="UTF-8"?>
<svg id="Layer_1" data-name="Layer 1" xmlns="http://www.w3.org/2000/svg" viewBox="0 0 672.26 1149.8">
  <defs>
    <style>
      .cls-1 {
        fill: #2b5baf;
      }

      .cls-2 {
        fill: #83a2d1;
      }
    </style>
  </defs>
  <g>
    <path class="cls-1" d="M276.4,15.44c7.64-9.07,19.13-14.58,30.89-15.44,14.22,1.1,28.62,5.54,39.75,14.72,4.69,3.63,6.49,9.66,7.59,15.23,1.53,8.97,1.33,18.29,4.72,26.87,2.36-.41,5.29-.63,6.26,2.14,2.96,9.69-3.07,18.69-7.95,26.52-1.51,7.61-2.44,15.34-3.58,23.02-1.07,7.37,1.1,14.78,4.68,21.18-4.7,7.25-11.56,12.62-17.39,18.88-4.15,4.41-9.82,7.36-13.05,12.61,2.02-.21,4.04-.41,6.07-.6,2.42,3.34,5.23,6.36,8.17,9.24-3.04,3.32-5.97,6.73-8.83,10.21,5.69,20.69,7.37,42.19,9.43,63.47,.1,8.14,1.39,16.21,1.46,24.35,3.19-11.24,7.43-22.22,9.4-33.79,4.15-18.61,6.07-37.64,6.81-56.67,1.92-8.68,.02-17.59,1.28-26.33,1.18-7.36,.36-14.84,.85-22.25,4.41,2.26,8.41,5.39,13.24,6.77,15.33,5.11,31.46,7.04,47.1,10.98,9.13,2,18.48,3.15,27.32,6.3,2.97,4.78,5.54,9.89,6.41,15.51,1.05,6.62,2.85,13.1,3.61,19.76,1.18-4.61,3.24-8.91,5.31-13.17,17.66-5.13,36.49-5.36,53.74-12,6.36-3.39,13.23-8.69,13.98-16.41,.55-3.63,.52-7.31,.5-10.97-2.57-3-4.66-6.39-5.85-10.16-1.65-5.25-5.77-9.19-7.79-14.24-2.14-5.56-2.77-11.78-1.25-17.57,3.39-12.76,.86-26.37,5.07-38.96,1.91-5.79,5.11-11.36,10.04-15.08,4.61-3.31,10.6-3.6,15.46-6.45,2.86-1.67,5.38-3.93,8.49-5.19,2.84-1.14,5.97-1.05,8.99-1.07,7.68-.12,14.42,4.13,20.96,7.64,12.74,7.84,24.38,19.78,27.08,35.01,1.92,9.24-1.55,18.56,.07,27.81,.45,4.08,.85,8.16,1.31,12.24,.81,6.4-2.37,13.08-7.8,16.54-6.07,3.95-13.23,5.6-19.7,8.71,5.08,3.37,11.33,4.68,15.98,8.74,4.19,3.6,8.14,7.76,10.16,12.99,1.9,4.45,2.13,9.35,2.19,14.12,9.22,4.59,19.15,7.54,28.34,12.18,2.29,1.26,4.93,2.5,6.01,5.08,4.36,9.54,4.85,20.21,5.97,30.5,3.11,35.89,10.55,71.23,14.29,107.04,.14,2,.23,4.16-1.06,5.84-6.83,10.93-14.59,21.3-23.23,30.87-5.31,5.5-10.85,10.75-16.33,16.07-3.2-8.4-4.49-17.7-9.8-25.16-3.59-4.54-8.07-8.27-12.03-12.46,1.35,7.23,1.25,14.71,3.47,21.77,.96,3.75,2.89,7.73,1.61,11.61-4.33,5.43-11.38,7.36-17.8,9.06,2.94,2.81,5.26,6.22,8.26,8.97,10.12,1.23,20.06-4.12,26.14-12.02,1.13,4.12,2.78,8.17,2.98,12.49,.36,6.04,2.16,11.88,2.36,17.94,.15,5.46,1.85,10.7,2.56,16.09,.95,6,.94,12.13,2.3,18.07,1.13,4.55,.75,9.25,.79,13.88-.01,145.67,0,291.33-.01,436.99-.23,12.64,1.01,25.34-.62,37.94-4.67,39.45-13.97,79.12-33.75,113.93-15.95,28.49-39.62,52.59-67.88,68.95-31.03,18.04-66.45,27.18-101.89,31.2-16.06,1.81-32.25,2.57-48.4,2.24,.03-81.92-.1-163.84,.06-245.75-44.22-.05-88.44,.01-132.66,.09-28.69,.39-57.45-3.41-85.06-11.2-28.23-8.13-55.23-21.45-77.52-40.75-24.98-21.47-43.43-50.07-54.01-81.18-7.35-21.36-11.49-43.86-11.86-66.45,.18-93.31-.23-186.62,.18-279.93,1.23-8.33,.16-16.76,.95-25.11,.9-9.68,1.73-19.38,3.32-28.98,.83-4.58,.21-9.27,.7-13.88,.63-5.9,2.73-11.51,4.94-16.97-6.74-1.02-13.89-1.19-19.99-4.56-5.65-3.16-10.6-7.46-14.96-12.22-1.9-1.96-2.97-4.6-3.11-7.31-.45-7.85-1.41-15.75-.37-23.59,1.65-32.88,5.28-65.63,8.44-98.39,.76-9.75,1.52-19.6,4.56-28.95,16.37-8.37,33.87-14.09,50.84-21.05,6.57-2.64,11.87-7.58,16.64-12.67-1.02-6.4-5.03-11.6-7.43-17.47-1.24-3.54-5.85-4.44-6.97-8.1-2.08-6.16-3.21-12.59-4.35-18.98,1.1-1.4,2.24-2.77,3.41-4.1-2.36-10.59-3.68-22.03,.18-32.43,6.16-10.28,15.76-18.89,27.44-22.22,12.19-2.47,25.01,1.08,35.31,7.73,6.75,5.26,13.41,11.66,15.8,20.15,2.1,6.64,1.91,13.71,1,20.54,.67,.21,2.01,.64,2.68,.86,4.48,7.22,1.6,15.95,.3,23.68-.4,3.74-4.96,3.99-7.74,5.15,.13,5.46,.26,10.96-.76,16.36,6.73,3.75,10.56,11.64,18.43,13.46,18.29,5.56,36.36,11.99,54.98,16.38,1.72,3.01,3.23,6.14,4.62,9.32,18.23-6.06,36.74-11.45,54.37-19.18,8.09-3.34,16.01-7.08,23.86-10.96-1.44,3.57-3.59,6.87-4.62,10.6-1.39,11.35,1.37,22.62,2.73,33.84,1.93,12.69,3.68,25.47,7.21,37.84,2.62,11.52,6.79,22.58,10.39,33.8,1.42-7.19,.77-14.55,1.78-21.79,1.21-14.37,2.39-28.99,7.03-42.74-2.28-3.28-4.32-6.72-5.91-10.39,2.39-3.41,4.84-6.76,7.31-10.1,2.5-.31,5.1-.65,7.01-2.48-10.19-4.94-19.19-11.96-28.2-18.75-5.24-3.65-4.7-10.74-5.07-16.37-.11-8.38-4.7-15.67-8.73-22.7-4.73-8.04-12.99-13.74-16.14-22.74-.55-3.65-.44-7.43-.08-11.1,1.72-1.62,4.22-1.55,6.4-1.99-3.63-8.15-5.86-16.88-7.16-25.69-.58-4.92-1.29-10.06,.28-14.88,.78-3.94,3.64-6.96,6.09-9.98ZM139.43,126.1c.43,4.13,1.05,8.24,1.4,12.37,1.28,8.9-5.23,16.1-9.13,23.45-4.33,8.14-15.3,8.2-20.46,15.58-6.57-4.25-14.16-6.81-20.27-11.76-4.16-3.54-7.92-7.94-9.36-13.31-1.5-5.4-.68-11.04-.88-16.55-1.4,3.38-2.88,6.85-2.82,10.58-.03,10.65,.07,21.3-.08,31.96-.01,8.78,2.07,17.38,5.04,25.59,8.04,25.08,18.72,49.21,30,72.98,2.89-.06,5.78-.09,8.68-.14,4.31-13.22,9.81-26.02,13.67-39.38,5.84-20.48,6.48-41.91,7.88-63.02,.01-14.32,2.42-28.74-.06-42.99-.69-2.07-2.37-3.62-3.61-5.36Zm393.51,50.26c.49,11.07,.1,22.16,.02,33.23-1.54,12.95-.21,25.99-1,38.97-1.03,9.27-.52,18.61-.64,27.92,.23,14.67-.61,29.37,.61,44.02,.91,11.1,.27,22.4-2.37,33.24-2.72,7.94-5.24,15.97-8.26,23.82-1.79,6.49-1.77,13.34-3.71,19.81,6.01,.8,11.61,3.41,17.64,4.1,7.03,.22,14.09-.66,21.12,.15,5.31,.68,10.69,.3,15.92-.85,.08-9.46-1.81-18.81-1.89-28.26-1.08-13.27-1.68-26.86,1.46-39.91,1.47-6.46,4.93-12.22,6.75-18.56,1.65-6.77,1.71-13.77,2.54-20.65,.82-6.28,.06-12.63,.69-18.92,1.08-11.67-.5-23.43,.92-35.08,.75-6.12-.01-12.3,.7-18.42,.79-6.81,.75-13.69,.48-20.53-.07-3.08-2.39-5.41-3.61-8.07-2.86-5.23-2.42-11.36-2.27-17.11-2.33,4.53-5.09,9.03-5.8,14.16-.6,3.18,.94,6.17,2.02,9.06-5.64,7.19-11.07,14.6-15.4,22.67-2.4,4.49-4.25,9.28-7.13,13.51-3.16-3.72-4.74-8.4-7.08-12.62-2.05-3.79-4.21-7.52-6.11-11.38,1.87-3.88,3.42-8.21,2.37-12.57-2.9-14.21-4.87-28.58-7.74-42.8,.18,7.04-1,14.05-.23,21.07Zm88.13,107.77c-1.22,7.02-.75,14.54-4.18,21.01-4.27,7.58,.71,16.18-1.15,24.19,5.09-3.96,7.77-10,10.49-15.65,.22-6.11,.23-12.28-.26-18.38-1.07-3.94-3.24-7.47-4.9-11.17Zm-143.39,12.31c.23,6.68,1.66,13.32,.92,20.03-.63,3.78,3.61,5.36,5.82,7.56-.68-1.78-1.22-3.63-1.09-5.54,.11-10.39,.72-20.94-1.72-31.14-1.4,2.99-3.03,5.9-3.93,9.09Zm-231.03-3.1c-.71,5.41-1.94,10.74-2.92,16.1-.47,5.69-.3,11.41-.19,17.12-.04,3.68,2.08,7.09,1.57,10.8-2.15,12.04-5.45,24.57-2.59,36.77,3.47-8.12,5.35-16.83,5.51-25.66,1.37-7.56,.72-15.26,.99-22.9,.23-10.81-1.61-21.49-2.37-32.23Zm-189.21,14.21c-5.37,9.25-3.42,21.05,1.82,29.91,1.51,2.96,5.2,3.1,8.1,2.98,3.64-.68,6.34-3.56,8.46-6.41-3.93,1.16-7.7,2.81-11.67,3.82-2.64-4.01-5.58-8.32-5.58-13.31-.15-5.61-.39-11.51,2.2-16.68,1.57-3.87,4.57-6.84,7.52-9.69-4.53,1.84-8.54,5.01-10.85,9.38Zm365.68,24.21c.36,5.6,1.88,11.04,2.67,16.59,1.69,8.92-.08,18.03,1.25,26.98,.63,4.54,.45,9.12,.66,13.69,1.13-6.09,1.76-12.26,2.78-18.36,3.63-13.34,1.33-27.41-1.8-40.62-1.86,.57-3.71,1.14-5.56,1.72Zm-302.92,21.63c-1.31,4.41-2.34,8.89-3.66,13.3-2.03,7.14-4.94,14.14-5.21,21.66,5.9,.76,11.88,1.31,17.83,.81,1.43-.99,.64-2.8,.4-4.16-2.46-9.23-3.31-18.8-5.66-28.05-.42-1.82-2.41-2.46-3.7-3.56Zm349.86,80.47c1.22-5.11,2.91-10.49,1.59-15.75-.88,5.2-1.97,10.45-1.59,15.75Zm-425.36,13.9c-.56,3.71-.69,7.6,.12,11.28,2.66,3.92,6.73,6.59,9.8,10.16,2.22,2.16,1.12,5.57,1.42,8.33-2.15-.01-4.3-.02-6.44-.03,0-2.44,0-4.88,.02-7.31-1.75-.01-3.49,0-5.23,.02-.02,3.07-.18,6.14,.14,9.2-.11,1.26,.78,2.48,2.09,2.56,3.23,.39,6.49,.28,9.74,.22,1.48-.18,3.35,.13,4.38-1.23,.83-4.01,.77-8.23,.14-12.26-3.02-4.49-7.6-7.67-11.23-11.65-.03-2.16-.05-4.33-.08-6.48,2.13-.02,4.27-.02,6.4-.02,0,2.25,0,4.52,0,6.79,1.73,0,3.48,0,5.22,0,.04-2.65,.14-5.3-.04-7.93-.13-1.18-.16-2.75-1.54-3.15-3.75-.67-7.6-.41-11.38-.32-1.29,.09-3.37,.12-3.54,1.82Zm19.11-1.82c-.05,1.53-.1,3.07-.13,4.61,1.93,.1,3.86,.18,5.8,.27,.09,10.47,0,20.94,.06,31.42,1.75-.1,3.5-.17,5.26-.26-.18-10.4-.04-20.8-.1-31.2,1.9-.03,3.79-.06,5.69-.07,.06-1.56,.11-3.12,.17-4.67-5.59-.19-11.17-.13-16.75-.1Zm19.39-.05c-.27,9.86-.01,19.72-.17,29.59,.18,2.06-.33,4.49,1.11,6.21,4.61,.88,9.4,.61,14.07,.27,2.29,.12,2.22-2.81,2.32-4.41,.06-10.49-.09-20.98,.04-31.46-1.74-.11-3.47-.19-5.2-.29-.19,10.56,0,21.11-.09,31.67-2.32-.01-4.64,0-6.96,0-.06-10.53,.12-21.06-.1-31.58-1.68-.01-3.35-.01-5.02,0Zm21.47,.05c-.02,12.07-.01,24.13,0,36.19,4.36-.05,8.79,.41,13.11-.35,2.76-.68,4.28-3.56,4.23-6.25,.15-7.35,.05-14.7,.05-22.04,.1-2.8-.94-6.08-3.85-7.03-4.42-1.09-9.04-.39-13.54-.52Zm21.33,.1c.19,12.05-.14,24.12,.19,36.17,4.74-.06,9.48-.07,14.22-.03,.05-1.61,.08-3.22,.12-4.82-3.08-.01-6.16-.01-9.23-.01-.04-3.78-.05-7.55-.03-11.33,2.59,0,5.19,0,7.78,.01,.04-1.57,.08-3.13,.12-4.67-2.63-.05-5.25-.06-7.87-.09-.01-3.52,0-7.03,.02-10.54h9.09c-.06-1.62-.1-3.22-.16-4.82-4.75-.02-9.5-.01-14.25,.13Zm38.41-.14c-.05,1.6-.08,3.2-.1,4.81,1.91,.01,3.83,.03,5.75,.05,.06,10.47-.11,20.95,.1,31.43,1.69-.01,3.38-.02,5.08-.02,.08-10.46-.01-20.92,.05-31.38,1.93-.07,3.87-.12,5.81-.18-.05-1.58-.09-3.14-.13-4.7-5.53,.02-11.04,.02-16.56-.01Zm19.57,1.28c-.75,3.86-.77,7.94-.04,11.8,3.14,4.37,7.61,7.6,11.2,11.6-.02,2.31-.03,4.63-.03,6.96-2.09,.01-4.18,.02-6.26,.04-.02-2.32,.04-4.64-.2-6.94-1.6-.49-3.28-.6-4.91-.81-.17,3.19-.43,6.41-.08,9.61-.02,1.18,.75,2.42,2.02,2.52,3.86,.44,7.78,.35,11.65,.1,1.01-.09,2.58-.29,2.67-1.61,.62-3.91,.64-7.97-.02-11.87-2.94-4.62-8.12-7.33-11.03-11.96-.27-2.03-.22-4.08-.23-6.11,2.12,.01,4.26,.02,6.39,.03,0,2.26,.01,4.52,.03,6.78,1.71,.01,3.42,.02,5.15,.04-.07-3.47,.57-7.11-.54-10.45-2.42-1.67-5.69-.82-8.47-1.07-2.39,.31-5.48-.64-7.3,1.34Zm38.77-1.28c0,12.08,0,24.17,0,36.25,1.74-.01,3.48,0,5.23,0,0-10.52,0-21.03,0-31.55h6.52v11.45c-1.78,0-3.54,.01-5.31,.03,.64,7.01,4.03,13.37,5.97,20.07,1.81,0,3.62-.01,5.45,0-1.9-5.36-3.68-10.75-5.71-16.05,1.58-.7,4.55-.22,4.67-2.57,.37-4.34,.13-8.72,.17-13.07-.04-1.57,.06-3.97-1.91-4.33-5.01-.54-10.06-.1-15.08-.23Zm39.01,0c.01,12.08,.01,24.17,0,36.25,1.74-.01,3.49,0,5.24,0v-13.11c3.05-.02,6.12,.17,9.17-.11,1.24-.01,2.37-1.14,2.29-2.41,.26-5.33,.05-10.68,.12-16.01-.05-1.56,.13-3.9-1.79-4.35-4.98-.6-10.03-.11-15.03-.26Zm20.55,0c-.09,12.08-.09,24.16,0,36.24,1.72,.01,3.45,.01,5.18,.03,.04-10.52,.01-21.05,.02-31.57h6.53c-.01,3.81-.01,7.62,0,11.44-1.8,0-3.59,.02-5.37,.05,.77,6.99,4.01,13.37,5.99,20.06,1.81-.01,3.63-.01,5.46,0-1.9-5.37-3.71-10.76-5.69-16.1,1.6-.58,4.54-.21,4.66-2.57,.34-4.68,.17-9.39,.12-14.08,.13-1.5-.59-3.33-2.33-3.35-4.84-.38-9.71-.04-14.56-.15Zm20.95,0c-.05,12.08-.02,24.16-.02,36.25h14.47c-.01-1.62-.02-3.22-.02-4.82-3.08-.01-6.14,0-9.21,0,0-3.78,0-7.56,.01-11.34h7.82c0-1.57,0-3.14,0-4.69-2.61-.01-5.22-.01-7.83,0v-10.58c3.03-.01,6.06,0,9.1,0,0-1.61,0-3.22,.01-4.82h-14.33Zm20.35,.14c-2.78,.11-2.4,3.5-2.48,5.45,.25,3.07-.89,6.93,1.72,9.26,3.23,3.31,6.63,6.46,9.9,9.74-.01,2.36-.01,4.72,0,7.08h-6.35c0-2.47-.01-4.94,0-7.4-1.75,0-3.49,0-5.22,0,.06,3.42-.31,6.9,.27,10.3,.41,1.72,2.46,1.61,3.83,1.68,3.74-.05,7.55,.32,11.26-.31,.27-.27,.81-.81,1.07-1.08,.56-4.08,.78-8.47-.11-12.48-3.29-4.09-7.42-7.42-11.07-11.16-.03-2.2-.04-4.38-.04-6.57h6.36c-.01,2.27-.01,4.54,0,6.81,1.73-.01,3.48-.01,5.22-.01-.57-3.57,1.46-8.47-1.53-11.12-4.22-.65-8.57-.39-12.83-.19Zm36.44-.09c.04,12.06,.02,24.12,.02,36.18,1.69,.01,3.39,.02,5.11,.03,.07-7.11-.19-14.24,.21-21.34,2.53,7.14,5.16,14.24,7.78,21.35,1.52-.02,3.05-.03,4.59-.04,0-12.07,0-24.15,0-36.22-1.71-.01-3.41-.01-5.1-.01,.01,7.24-.06,14.49,.04,21.73-2.58-7.29-5.38-14.49-8.05-21.75-1.54,.01-3.07,.03-4.59,.07Zm20.31-.05c-.02,1.6-.02,3.2-.01,4.82,1.91-.01,3.82-.01,5.75,0,0,10.46,.02,20.92-.02,31.39,1.75,.02,3.49,.03,5.26,.06-.01-10.48,0-20.97-.01-31.45,1.89-.01,3.79-.01,5.69,0,0-1.61,0-3.22,.01-4.82h-16.67Zm24.75,.03c-2.21,12.08-4.49,24.15-6.73,36.23,1.72-.01,3.45-.02,5.19-.02,.33-2.29,.68-4.58,1.03-6.86,2.15,0,4.32-.01,6.49,0,.34,2.29,.71,4.59,1.07,6.89,1.72-.02,3.44-.03,5.16-.03-2.22-12.08-4.46-24.16-6.68-36.24-1.85,0-3.7,.01-5.53,.03Zm32.98,.01c.04,12.07-.01,24.15,.03,36.22,1.73-.01,3.47-.02,5.22-.02-.01-12.09,.02-24.17-.02-36.26-1.75,.02-3.49,.03-5.23,.06Zm8.28-.04c2.21,12.1,4.44,24.2,6.65,36.31h5.21c2.23-12.1,4.45-24.2,6.68-36.3-1.75-.01-3.49-.01-5.22-.01-1.36,8.53-2.72,17.06-4.02,25.61-1.4-8.53-2.71-17.07-4.05-25.6-1.76-.01-3.51-.02-5.25-.01Zm21.46,.01c0,12.07,.02,24.15,0,36.23,4.81,.02,9.62,.01,14.43,.01,.02-1.61,.04-3.22,.06-4.82-3.09-.01-6.18,0-9.26,0v-11.33c2.6-.01,5.2-.01,7.82-.01-.01-1.57-.01-3.14,0-4.7-2.61,0-5.21,.01-7.81,.02-.01-3.53-.01-7.06-.02-10.59,3.03-.01,6.08,0,9.12,0-.01-1.62-.01-3.22-.01-4.82-4.78,0-9.55,0-14.33,.01Zm27.94,1.01c-1.34,7.08-.2,14.43-.57,21.62,.29,4.33-.89,9.07,.94,13.13,4,.87,8.15,.57,12.21,.45,1.29-.26,3.45,.19,3.64-1.67,.72-3.49,.3-7.08,.25-10.61-1.67,0-3.32,0-4.97,0-.08,2.54-.13,5.09-.18,7.64-2.24-.01-4.46-.02-6.68-.02,.01-8.96,0-17.92,.01-26.87,2.23,0,4.47,0,6.72,.01,0,2.38,0,4.76,.02,7.15h5.18c-.01-3.37,.3-6.79-.31-10.13-.82-2.31-3.87-1.42-5.75-1.76-3.45,.27-7.43-.8-10.51,1.06Zm22.87-.79c-2.26,.01-2.13,2.73-2.23,4.33-.01,9-.01,18.01,0,27.02,.2,1.48-.23,3.63,1.52,4.34,4.08,.67,8.26,.41,12.39,.3,1.33-.03,3.28-.27,3.43-1.96,.62-6.18,.05-12.42,.23-18.62-.18-4.76,.53-9.62-.43-14.31-.27-.24-.82-.71-1.09-.95-4.55-.71-9.25-.53-13.82-.15Zm19.65-.27c-.31,9.87-.03,19.75-.18,29.63,.12,2.05-.23,4.37,1,6.18,4.62,.9,9.43,.63,14.12,.3,2.3,.03,2.33-2.76,2.37-4.43,.03-10.54-.02-21.07,0-31.61-1.77,0-3.51,.01-5.25,.03,0,10.51,.03,21.02-.01,31.53-2.33-.02-4.65-.02-6.96-.03-.08-10.52,.15-21.05-.13-31.57-1.66-.02-3.31-.03-4.95-.03Zm34.09,.03c-.16,6.85,.08,13.7-.2,20.55-2.92-6.71-5.2-13.67-7.84-20.48-1.54-.02-3.07-.03-4.59-.03-.02,12.07-.01,24.14,0,36.22h5.09c0-7.26,.04-14.51-.06-21.76,2.79,7.2,5.35,14.48,8.02,21.72,1.5,.03,3,.06,4.52,.1,.12-12.11,.18-24.21-.03-36.32h-4.91Zm11.35,.23c-2.2,.14-2.09,2.74-2.16,4.34-.05,8.68,.05,17.36-.03,26.04,.22,1.77-.4,4.24,1.46,5.32,3.73,.65,7.56,.4,11.33,.35,1.4-.2,3.65,.11,4.08-1.73,.6-3.45,.3-6.98,.35-10.45-1.75-.07-3.49-.13-5.21-.18-.03,2.55-.04,5.1-.05,7.65-2.24,.01-4.47,.02-6.68,.04-.03-8.98-.07-17.95,.02-26.93,2.21,.01,4.43,.02,6.66,.03,0,2.36,0,4.73,0,7.1,1.73,.03,3.45,.05,5.2,.08-.4-3.72,1.24-8.45-1.36-11.47-4.48-.75-9.11-.56-13.62-.19Zm-439.67-.15c.03,12.07-.12,24.15,.08,36.22,1.66-.01,3.32-.02,4.99-.03,.12-6.75-.18-13.51,.23-20.26,3.16,6.53,5.12,13.54,7.79,20.27,1.51-.02,3.03-.03,4.55-.04v-36.14c-1.67-.07-3.32-.13-4.98-.17-.29,6.6,.13,13.23-.35,19.83-3.19-6.35-5.08-13.24-7.82-19.78-1.5,.02-3,.06-4.49,.1Zm60.89-.02c-.43,3.8-.81,7.61-1.11,11.42,.82-.02,2.46-.08,3.28-.1,1.05-3.78,2.06-7.57,3.02-11.37-1.74,.01-3.47,.02-5.19,.05Zm38.84-.05c-.01,12.08,0,24.16,0,36.24,4.81,.01,9.62,0,14.44,.01,0-1.61,0-3.22,0-4.82-3.08-.01-6.15,0-9.22,0,.01-3.78,.01-7.56,0-11.33,2.61-.01,5.21-.01,7.82-.01,0-1.57-.01-3.14,0-4.7-2.61,0-5.21,0-7.81,.01-.01-3.53-.01-7.06,0-10.58,3.01-.01,6.02,0,9.04,0v-4.82h-14.27Zm98.31,0c.01,12.09-.03,24.18,.02,36.26,4.81-.02,9.62-.01,14.43-.01-.01-1.61-.01-3.22-.01-4.82-3.07-.01-6.14,0-9.21,0,0-3.78,0-7.56,.01-11.34,2.59,0,5.19,0,7.79,.01,0-1.58,0-3.14,0-4.71-2.61,0-5.21,0-7.81,.01v-10.59c3.03,0,6.06,.01,9.1,.01,0-1.61,0-3.22,0-4.82h-14.33Zm76.55,.01c-.01,1.59-.01,3.2,0,4.81,1.91-.01,3.83-.01,5.76,0,0,10.48-.01,20.96,0,31.44,1.74-.01,3.48-.02,5.24-.02-.02-10.48,0-20.95-.01-31.42,1.89-.01,3.79-.01,5.7-.01-.01-1.6-.01-3.21,0-4.8-5.56-.01-11.13-.01-16.69,0Zm184.23,0c.05,12.11-.16,24.22,.11,36.33,1.69-.04,3.4-.08,5.11-.11,.05-12.06-.02-24.11,.04-36.16-1.76-.03-3.52-.06-5.26-.06Zm9.45,.03c.04,12.07-.03,24.15,.04,36.22,4.55,0,9.11,0,13.67,0,.01-1.61,.02-3.22,.04-4.81-2.84-.05-5.67-.05-8.49-.08-.01-10.44,0-20.89-.01-31.33-1.76-.01-3.51,0-5.25,.01Zm-379.58,57.22c-10.35,.96-20.49,3.48-30.4,6.53-15.37,4.98-30.78,10.54-44.43,19.33-7.12,4.46-14.41,8.76-20.62,14.48-11.19,9.46-21.7,19.87-30.09,31.96-11,15.47-17.66,33.58-22.1,51.92-4.53,19.34-7.17,39.2-7.24,59.08,33.12,.15,66.25,.02,99.37,.06,24.67-.08,49.34,.32,74.01,.09-.12,28.35-.01,56.71-.06,85.07-57.56,.15-115.12,.07-172.68,.03,8.88,19.3,22.17,36.39,37.77,50.73,24.21,22.42,55.57,36.34,87.92,41.84,8.91,2.09,18,3.37,27.17,3.29,16.98-.03,33.97,.21,50.95-.08,.06-51.5-.14-103.01,.08-154.51,3.96,2.78,7.69,5.88,11.24,9.17,4.47,4.18,9.41,7.86,13.49,12.46-.1,41.15-.04,82.31-.03,123.47,10.03-3.47,20.22-6.9,29.28-12.56-.02-28.51-.01-57.02,0-85.54,6.33,5.43,12.9,10.61,18.77,16.55,2.27,2,1.85,5.22,1.91,7.95-.54,16.38-.17,32.77-.35,49.16,9.73-6.62,18.75-14.37,26.4-23.33,4-4.67,8.48-8.96,11.88-14.11,9.22-14.12,16.95-29.36,21.43-45.67,4.68-14.73,7.07-30.07,8.35-45.44,1.45,9.45,2.19,19,4.18,28.37,3.85,19.16,10.52,37.86,20.72,54.59,10.38,17.96,25.18,33.03,41.67,45.47,11.33,7.69,23.07,15.09,36,19.8,10.41,4.02,20.91,7.99,31.91,10.07,7.03,1.28,13.84,3.83,21.03,4.11,6.46,.31,12.94,.12,19.42,.1-.62-20.23,.88-40.52-.97-60.71-9.46-.08-18.92,.06-28.37-.08,.01-9.87,.07-19.74-.04-29.6-7.83-.35-15.68-.04-23.51-.3,.02-10.21,.37-20.44-.28-30.63-8.37-.12-16.74-.07-25.1-.02-.04-9.72,.05-19.43-.06-29.14-8.61-.15-17.22-.09-25.83,0-.12-9.65-.09-19.29,.03-28.94-5.21-.07-10.41-.05-15.6,.08,.04-10.8,1.31-21.61,3.98-32.07,2.86-11.65,8.07-22.55,14.16-32.82,7.86-12.79,18.53-23.64,30.19-33,12.06-9.32,26.16-15.72,40.66-20.24,9.73-2.82,19.84-3.78,29.8-5.46,.05-20.6-.17-41.21-.05-61.82-13.32-1.22-26.55,1.55-39.41,4.71-29.44,6.98-58.06,19.83-80.53,40.42-10.24,8.5-18.67,18.92-26.19,29.83-8.71,13.24-14.98,27.94-19.88,42.97-3.55,10.64-5.04,21.81-6.95,32.83-1.83,10.12-2.12,20.45-1.91,30.71-15.18-.06-30.36-.63-45.54-.03-22.34,.21-44.68-.04-67.02-.34-2.63,.05-5.25-.56-7.45-2.01-5.86-3.72-11.88-7.29-16.96-12.06-7.49-6.9-13.62-15.07-19.83-23.09-3.95-5.07-8.54-9.8-14.35-12.71-.49,13.73-.39,27.46-.38,41.19-31.68,.8-63.38,.58-95.07,.57-22.89,.27-45.78-.46-68.66-.31,1.38-30.51,7.98-61.47,23.9-87.85,15.97-26.7,41.23-47.26,69.78-59.25,22.12-9.54,45.98-14.75,69.96-16.34-.22,8.7,0,17.4,.24,26.1,9.28,.55,18.66,1.56,27.45,4.77,11.89,4.21,21.91,12.37,30.41,21.49,10.16,11.17,19.07,23.44,29.48,34.39,7.65,6.81,15.32,13.86,24.53,18.54,17.08,9.3,36.64,13.28,55.97,13.57,1.91-.03,3.87-.07,5.7-.72,2.04-2.56,2.91-5.81,4.01-8.84,2.96-8.56,4.25-17.67,3.76-26.72-14.24-.41-28.68-2.19-41.92-7.7-13.32-5.59-24.66-15.09-33.97-26-12.07-13.87-22.82-29.24-37.67-40.38-12.35-9.17-27.14-14.35-42.03-17.63-15-3.24-30.35-1.08-45.43,.2Zm111.13-2.41c.08,.92,.23,2.75,.31,3.66,9.31,7.72,16.53,17.52,25.29,25.81,6.98,7.05,14.14,13.93,21.95,20.05,10.99,8.84,24.09,15.9,38.44,16.63-4.54-17.58-15.27-33.27-29.35-44.61-15.75-13.36-36.22-20.18-56.64-21.54Zm-91.57,66.68c-.05,12.24-.51,24.49,.19,36.72,5.4,2.06,11.03,3.93,15.63,7.57,4.04,3.25,7.34,7.3,11.06,10.9,7.78,7.6,13.95,16.63,21.53,24.4,7.62,7.78,15.07,15.83,23.93,22.23,11.64,8.54,26.1,14.14,40.71,12.68,9.83-.74,18.52-5.81,26.87-10.6,6.16-4.04,12.39-8.77,15.56-15.62-7.46-1.12-15.03-1.2-22.5-2.16-22.94-3.47-45.67-13.24-61.47-30.65-16.09-14.62-26.29-35.08-44.7-47.24-7.85-5.52-17.52-7.04-26.81-8.23Zm146.83,247.24c-.09,17.71-.05,35.42-.02,53.13,20.02,.05,40.04-.35,60.07-.31-19.88-17.76-40-35.25-60.05-52.82Zm32.08,89.19c-.23,65.98-.06,131.96-.11,197.95,26.31,.48,53.03-3.08,77.49-13.1,17.36-7.17,33.25-18.14,45.49-32.44,8.96-10.26,15.69-22.22,21.63-34.42,7-14.89,11.45-30.82,14.91-46.85,5.08-23.41,7.74-47.27,9.4-71.14-56.27,0-112.54,0-168.81,0Z"/>
    <path class="cls-1" d="M109.94,450.38c1.92,.16,3.87,.21,5.76,.63,1.61,1.72,.95,4.32,1.15,6.46-.21,5.89,.25,11.8-.2,17.68-.36,3.22-4.53,1.97-6.73,2.53-.02-9.11-.04-18.2,.02-27.3Z"/>
    <path class="cls-1" d="M521.63,450.63c2.36-.02,4.73-.05,7.11-.06,.04,8.98,.03,17.97,0,26.95-2.38-.04-4.75-.07-7.12-.11,.04-8.93,.03-17.85,.01-26.78Z"/>
    <path class="cls-1" d="M267,450.6c2.11,0,4.23,0,6.35,.01v13.74c-2.12-.01-4.24-.01-6.35,0v-13.75Z"/>
    <path class="cls-1" d="M407.76,454.53c.99,5.35,1.76,10.73,2.6,16.11-1.7,0-3.39-.01-5.06,0,.83-5.37,1.69-10.73,2.46-16.11Z"/>
    <path class="cls-1" d="M542.95,523.15c15.02-5.2,30.68-8.5,46.51-9.88-.1,14.21,.18,28.43-.16,42.64-34.11,3.42-66.81,20.45-88.65,46.97-19.9,23.39-31,53.97-31.11,84.65-.1,3.3,.85,6.97,3.73,8.93,3.48,2.37,7.9,2.1,11.92,2.51,.18,6.51-.41,13.06,.31,19.56,.36,3.66,3.15,6.97,6.78,7.76,6.22,1.35,12.64,.6,18.95,.71,.05,6.87-.43,13.77,.14,20.63,.16,3.94,2.87,7.93,6.95,8.57,5.98,1.07,12.1,.49,18.15,.46,.23,7.47-.48,14.99,.37,22.44,.36,3.44,2.77,6.69,6.22,7.54,5.58,1.33,11.37,.7,17.05,.74,.08,7.05-.61,14.15,.32,21.17,.59,4.33,4.54,7.8,8.86,8.13,6.3,.66,12.64,.16,18.96,.18,.3,13.72,.07,27.45,.14,41.17-17.49-2.36-34.95-5.72-51.45-12.16-14.99-5.69-29.28-13.31-42.19-22.83-22.77-16.95-39.73-41.18-49.12-67.87-5.43-16.02-8.63-32.75-10.06-49.59-.45-6.73-1.05-13.44-1.53-20.16-.61-8.04,.65-16.05,1.39-24.04,1.84-16.27,4.87-32.55,10.84-47.86,6.48-16.87,15.79-32.68,27.66-46.32,18.4-20.68,43.05-35.02,69.02-44.05Z"/>
    <path class="cls-1" d="M277.65,694.58c8.55,.27,17.09,.09,25.64-.31,19.31-.09,38.62,.76,57.93,1.07,17.87,.18,35.74-.25,53.59-.81-.9,33.55-9.2,67.66-28.41,95.58-12.89-10.28-24.61-21.9-36.98-32.78-9.23-7.77-18.54-15.46-27.51-23.53-7.11-6.19-13.75-12.9-20.91-19.03-7.73-6.79-15.8-13.2-23.35-20.19Z"/>
    <path class="cls-1" d="M96.13,782.05c46.05-.06,92.09,0,138.14-.03,5.87,.02,11.74,.06,17.6,.45-.17,25.12,.15,50.25-.14,75.37-13.49,.97-26.88-1.12-40.25-2.67-29.57-4.8-58.67-15.82-81.98-35.01-13.11-10.74-24.61-23.57-33.37-38.11Z"/>
  </g>
  <g>
    <path class="cls-2" d="M44.7,447.76c.17-1.7,2.25-1.73,3.54-1.82,3.78-.09,7.63-.35,11.38,.32,1.38,.4,1.41,1.97,1.54,3.15,.18,2.63,.08,5.28,.04,7.93-1.74,0-3.49,0-5.22,0,0-2.27,0-4.54,0-6.79-2.13,0-4.27,0-6.4,.02,.03,2.15,.05,4.32,.08,6.48,3.63,3.98,8.21,7.16,11.23,11.65,.63,4.03,.69,8.25-.14,12.26-1.03,1.36-2.9,1.05-4.38,1.23-3.25,.06-6.51,.17-9.74-.22-1.31-.08-2.2-1.3-2.09-2.56-.32-3.06-.16-6.13-.14-9.2,1.74-.02,3.48-.03,5.23-.02-.01,2.43-.02,4.87-.02,7.31,2.14,0,4.29,.02,6.44,.03-.3-2.76,.8-6.17-1.42-8.33-3.07-3.57-7.14-6.24-9.8-10.16-.81-3.68-.68-7.57-.12-11.28Z"/>
    <path class="cls-2" d="M63.81,445.94c5.58-.03,11.16-.09,16.75,.1-.06,1.55-.11,3.11-.17,4.67-1.9,.01-3.79,.04-5.69,.07,.06,10.4-.08,20.8,.1,31.2-1.76,.09-3.51,.16-5.26,.26-.07-10.48,.03-20.95-.06-31.42-1.94-.09-3.87-.17-5.8-.27,.03-1.54,.08-3.08,.13-4.61Z"/>
    <path class="cls-2" d="M83.2,445.89c1.67-.01,3.34-.01,5.02,0,.22,10.52,.04,21.05,.1,31.58,2.32,0,4.64-.01,6.96,0,.09-10.56-.1-21.11,.09-31.67,1.73,.1,3.46,.18,5.2,.29-.13,10.48,.02,20.97-.04,31.46-.1,1.6-.03,4.53-2.32,4.41-4.67,.34-9.46,.61-14.07-.27-1.44-1.72-.93-4.15-1.11-6.21,.16-9.87-.1-19.73,.17-29.59Z"/>
    <path class="cls-2" d="M104.67,445.94c4.5,.13,9.12-.57,13.54,.52,2.91,.95,3.95,4.23,3.85,7.03,0,7.34,.1,14.69-.05,22.04,.05,2.69-1.47,5.57-4.23,6.25-4.32,.76-8.75,.3-13.11,.35-.01-12.06-.02-24.12,0-36.19Zm5.27,4.44c-.06,9.1-.04,18.19-.02,27.3,2.2-.56,6.37,.69,6.73-2.53,.45-5.88-.01-11.79,.2-17.68-.2-2.14,.46-4.74-1.15-6.46-1.89-.42-3.84-.47-5.76-.63Z"/>
    <path class="cls-2" d="M126,446.04c4.75-.14,9.5-.15,14.25-.13,.06,1.6,.1,3.2,.16,4.82h-9.09c-.02,3.51-.03,7.02-.02,10.54,2.62,.03,5.24,.04,7.87,.09-.04,1.54-.08,3.1-.12,4.67-2.59-.01-5.19-.01-7.78-.01-.02,3.78-.01,7.55,.03,11.33,3.07,0,6.15,0,9.23,.01-.04,1.6-.07,3.21-.12,4.82-4.74-.04-9.48-.03-14.22,.03-.33-12.05,0-24.12-.19-36.17Z"/>
    <path class="cls-2" d="M164.41,445.9c5.52,.03,11.03,.03,16.56,.01,.04,1.56,.08,3.12,.13,4.7-1.94,.06-3.88,.11-5.81,.18-.06,10.46,.03,20.92-.05,31.38-1.7,0-3.39,.01-5.08,.02-.21-10.48-.04-20.96-.1-31.43-1.92-.02-3.84-.04-5.75-.05,.02-1.61,.05-3.21,.1-4.81Z"/>
    <path class="cls-2" d="M183.98,447.18c1.82-1.98,4.91-1.03,7.3-1.34,2.78,.25,6.05-.6,8.47,1.07,1.11,3.34,.47,6.98,.54,10.45-1.73-.02-3.44-.03-5.15-.04-.02-2.26-.03-4.52-.03-6.78-2.13,0-4.27-.02-6.39-.03,.01,2.03-.04,4.08,.23,6.11,2.91,4.63,8.09,7.34,11.03,11.96,.66,3.9,.64,7.96,.02,11.87-.09,1.32-1.66,1.52-2.67,1.61-3.87,.25-7.79,.34-11.65-.1-1.27-.1-2.04-1.34-2.02-2.52-.35-3.2-.09-6.42,.08-9.61,1.63,.21,3.31,.32,4.91,.81,.24,2.3,.18,4.62,.2,6.94,2.08-.02,4.17-.03,6.26-.04,0-2.33,.01-4.65,.03-6.96-3.59-4-8.06-7.23-11.2-11.6-.73-3.86-.71-7.94,.04-11.8Z"/>
    <path class="cls-2" d="M495.77,446.92c3.08-1.86,7.06-.79,10.51-1.06,1.88,.34,4.93-.55,5.75,1.76,.61,3.34,.3,6.76,.31,10.13h-5.18c-.02-2.39-.02-4.77-.02-7.15-2.25-.01-4.49-.01-6.72-.01-.01,8.95,0,17.91-.01,26.87,2.22,0,4.44,.01,6.68,.02,.05-2.55,.1-5.1,.18-7.64,1.65,0,3.3,0,4.97,0,.05,3.53,.47,7.12-.25,10.61-.19,1.86-2.35,1.41-3.64,1.67-4.06,.12-8.21,.42-12.21-.45-1.83-4.06-.65-8.8-.94-13.13,.37-7.19-.77-14.54,.57-21.62Z"/>
    <path class="cls-2" d="M518.64,446.13c4.57-.38,9.27-.56,13.82,.15,.27,.24,.82,.71,1.09,.95,.96,4.69,.25,9.55,.43,14.31-.18,6.2,.39,12.44-.23,18.62-.15,1.69-2.1,1.93-3.43,1.96-4.13,.11-8.31,.37-12.39-.3-1.75-.71-1.32-2.86-1.52-4.34-.01-9.01-.01-18.02,0-27.02,.1-1.6-.03-4.32,2.23-4.33Zm2.99,4.5c.02,8.93,.03,17.85-.01,26.78,2.37,.04,4.74,.07,7.12,.11,.03-8.98,.04-17.97,0-26.95-2.38,.01-4.75,.04-7.11,.06Z"/>
    <path class="cls-2" d="M538.29,445.86c1.64,0,3.29,.01,4.95,.03,.28,10.52,.05,21.05,.13,31.57,2.31,.01,4.63,.01,6.96,.03,.04-10.51,.02-21.02,.01-31.53,1.74-.02,3.48-.03,5.25-.03-.01,10.54,.04,21.07,0,31.61-.04,1.67-.07,4.46-2.37,4.43-4.69,.33-9.5,.6-14.12-.3-1.23-1.81-.88-4.13-1-6.18,.15-9.88-.13-19.76,.18-29.63Z"/>
    <path class="cls-2" d="M572.38,445.89h4.91c.21,12.11,.15,24.21,.03,36.32-1.52-.04-3.02-.07-4.52-.1-2.67-7.24-5.23-14.52-8.02-21.72,.1,7.25,.06,14.5,.06,21.76h-5.09c-.01-12.08-.02-24.15,0-36.22,1.52,0,3.05,.01,4.59,.03,2.64,6.81,4.92,13.77,7.84,20.48,.28-6.85,.04-13.7,.2-20.55Z"/>
    <path class="cls-2" d="M583.73,446.12c4.51-.37,9.14-.56,13.62,.19,2.6,3.02,.96,7.75,1.36,11.47-1.75-.03-3.47-.05-5.2-.08,0-2.37,0-4.74,0-7.1-2.23-.01-4.45-.02-6.66-.03-.09,8.98-.05,17.95-.02,26.93,2.21-.02,4.44-.03,6.68-.04,0-2.55,.02-5.1,.05-7.65,1.72,.05,3.46,.11,5.21,.18-.05,3.47,.25,7-.35,10.45-.43,1.84-2.68,1.53-4.08,1.73-3.77,.05-7.6,.3-11.33-.35-1.86-1.08-1.24-3.55-1.46-5.32,.08-8.68-.02-17.36,.03-26.04,.07-1.6-.04-4.2,2.16-4.34Z"/>
    <path class="cls-2" d="M144.06,445.97c1.49-.04,2.99-.08,4.49-.1,2.74,6.54,4.63,13.43,7.82,19.78,.48-6.6,.06-13.23,.35-19.83,1.66,.04,3.31,.1,4.98,.17v36.14c-1.52,.01-3.04,.02-4.55,.04-2.67-6.73-4.63-13.74-7.79-20.27-.41,6.75-.11,13.51-.23,20.26-1.67,0-3.33,.02-4.99,.03-.2-12.07-.05-24.15-.08-36.22Z"/>
    <path class="cls-2" d="M204.95,445.95c1.72-.03,3.45-.04,5.19-.05-.96,3.8-1.97,7.59-3.02,11.37-.82,.02-2.46,.08-3.28,.1,.3-3.81,.68-7.62,1.11-11.42Z"/>
    <path class="cls-2" d="M602.88,445.92c1.74,0,3.5,.03,5.26,.06-.06,12.05,.01,24.1-.04,36.16-1.71,.03-3.42,.07-5.11,.11-.27-12.11-.06-24.22-.11-36.33Z"/>
    <path class="cls-2" d="M612.33,445.95c1.74-.01,3.49-.02,5.25-.01,.02,10.44,0,20.89,.01,31.33,2.82,.03,5.65,.03,8.49,.08-.02,1.59-.03,3.2-.04,4.81-4.56,0-9.12,0-13.67,0-.07-12.07,0-24.15-.04-36.22Z"/>
    <path class="cls-2" d="M232.75,503.17c15.08-1.28,30.43-3.44,45.43-.2,14.89,3.28,29.68,8.46,42.03,17.63,14.85,11.14,25.6,26.51,37.67,40.38,9.31,10.91,20.65,20.41,33.97,26,13.24,5.51,27.68,7.29,41.92,7.7,.49,9.05-.8,18.16-3.76,26.72-1.1,3.03-1.97,6.28-4.01,8.84-1.83,.65-3.79,.69-5.7,.72-19.33-.29-38.89-4.27-55.97-13.57-9.21-4.68-16.88-11.73-24.53-18.54-10.41-10.95-19.32-23.22-29.48-34.39-8.5-9.12-18.52-17.28-30.41-21.49-8.79-3.21-18.17-4.22-27.45-4.77-.24-8.7-.46-17.4-.24-26.1-23.98,1.59-47.84,6.8-69.96,16.34-28.55,11.99-53.81,32.55-69.78,59.25-15.92,26.38-22.52,57.34-23.9,87.85,22.88-.15,45.77,.58,68.66,.31,31.69,.01,63.39,.23,95.07-.57,0-13.73-.11-27.46,.38-41.19,5.81,2.91,10.4,7.64,14.35,12.71,6.21,8.02,12.34,16.19,19.83,23.09,5.08,4.77,11.1,8.34,16.96,12.06,2.2,1.45,4.82,2.06,7.45,2.01,22.34,.3,44.68,.55,67.02,.34,15.18-.6,30.36-.03,45.54,.03-.21-10.26,.08-20.59,1.91-30.71,1.91-11.02,3.4-22.19,6.95-32.83,4.9-15.03,11.17-29.73,19.88-42.97,7.52-10.91,15.95-21.33,26.19-29.83,22.47-20.59,51.09-33.44,80.53-40.42,12.86-3.16,26.09-5.93,39.41-4.71-.12,20.61,.1,41.22,.05,61.82-9.96,1.68-20.07,2.64-29.8,5.46-14.5,4.52-28.6,10.92-40.66,20.24-11.66,9.36-22.33,20.21-30.19,33-6.09,10.27-11.3,21.17-14.16,32.82-2.67,10.46-3.94,21.27-3.98,32.07,5.19-.13,10.39-.15,15.6-.08-.12,9.65-.15,19.29-.03,28.94,8.61-.09,17.22-.15,25.83,0,.11,9.71,.02,19.42,.06,29.14,8.36-.05,16.73-.1,25.1,.02,.65,10.19,.3,20.42,.28,30.63,7.83,.26,15.68-.05,23.51,.3,.11,9.86,.05,19.73,.04,29.6,9.45,.14,18.91,0,28.37,.08,1.85,20.19,.35,40.48,.97,60.71-6.48,.02-12.96,.21-19.42-.1-7.19-.28-14-2.83-21.03-4.11-11-2.08-21.5-6.05-31.91-10.07-12.93-4.71-24.67-12.11-36-19.8-16.49-12.44-31.29-27.51-41.67-45.47-10.2-16.73-16.87-35.43-20.72-54.59-1.99-9.37-2.73-18.92-4.18-28.37-1.28,15.37-3.67,30.71-8.35,45.44-4.48,16.31-12.21,31.55-21.43,45.67-3.4,5.15-7.88,9.44-11.88,14.11-7.65,8.96-16.67,16.71-26.4,23.33,.18-16.39-.19-32.78,.35-49.16-.06-2.73,.36-5.95-1.91-7.95-5.87-5.94-12.44-11.12-18.77-16.55-.01,28.52-.02,57.03,0,85.54-9.06,5.66-19.25,9.09-29.28,12.56,0-41.16-.07-82.32,.03-123.47-4.08-4.6-9.02-8.28-13.49-12.46-3.55-3.29-7.28-6.39-11.24-9.17-.22,51.5-.02,103.01-.08,154.51-16.98,.29-33.97,.05-50.95,.08-9.17,.08-18.26-1.2-27.17-3.29-32.35-5.5-63.71-19.42-87.92-41.84-15.6-14.34-28.89-31.43-37.77-50.73,57.56,.04,115.12,.12,172.68-.03,.05-28.36-.06-56.72,.06-85.07-24.67,.23-49.34-.17-74.01-.09-33.12-.04-66.25,.09-99.37-.06,.07-19.88,2.71-39.74,7.24-59.08,4.44-18.34,11.1-36.45,22.1-51.92,8.39-12.09,18.9-22.5,30.09-31.96,6.21-5.72,13.5-10.02,20.62-14.48,13.65-8.79,29.06-14.35,44.43-19.33,9.91-3.05,20.05-5.57,30.4-6.53Zm310.2,19.98c-25.97,9.03-50.62,23.37-69.02,44.05-11.87,13.64-21.18,29.45-27.66,46.32-5.97,15.31-9,31.59-10.84,47.86-.74,7.99-2,16-1.39,24.04,.48,6.72,1.08,13.43,1.53,20.16,1.43,16.84,4.63,33.57,10.06,49.59,9.39,26.69,26.35,50.92,49.12,67.87,12.91,9.52,27.2,17.14,42.19,22.83,16.5,6.44,33.96,9.8,51.45,12.16-.07-13.72,.16-27.45-.14-41.17-6.32-.02-12.66,.48-18.96-.18-4.32-.33-8.27-3.8-8.86-8.13-.93-7.02-.24-14.12-.32-21.17-5.68-.04-11.47,.59-17.05-.74-3.45-.85-5.86-4.1-6.22-7.54-.85-7.45-.14-14.97-.37-22.44-6.05,.03-12.17,.61-18.15-.46-4.08-.64-6.79-4.63-6.95-8.57-.57-6.86-.09-13.76-.14-20.63-6.31-.11-12.73,.64-18.95-.71-3.63-.79-6.42-4.1-6.78-7.76-.72-6.5-.13-13.05-.31-19.56-4.02-.41-8.44-.14-11.92-2.51-2.88-1.96-3.83-5.63-3.73-8.93,.11-30.68,11.21-61.26,31.11-84.65,21.84-26.52,54.54-43.55,88.65-46.97,.34-14.21,.06-28.43,.16-42.64-15.83,1.38-31.49,4.68-46.51,9.88Zm-265.3,171.43c7.55,6.99,15.62,13.4,23.35,20.19,7.16,6.13,13.8,12.84,20.91,19.03,8.97,8.07,18.28,15.76,27.51,23.53,12.37,10.88,24.09,22.5,36.98,32.78,19.21-27.92,27.51-62.03,28.41-95.58-17.85,.56-35.72,.99-53.59,.81-19.31-.31-38.62-1.16-57.93-1.07-8.55,.4-17.09,.58-25.64,.31Zm-181.52,87.47c8.76,14.54,20.26,27.37,33.37,38.11,23.31,19.19,52.41,30.21,81.98,35.01,13.37,1.55,26.76,3.64,40.25,2.67,.29-25.12-.03-50.25,.14-75.37-5.86-.39-11.73-.43-17.6-.45-46.05,.02-92.09-.03-138.14,.03Z"/>
    <path class="cls-2" d="M343.88,500.76c20.42,1.36,40.89,8.18,56.64,21.54,14.08,11.34,24.81,27.03,29.35,44.61-14.35-.73-27.45-7.79-38.44-16.63-7.81-6.12-14.97-13-21.95-20.05-8.76-8.29-15.98-18.09-25.29-25.81-.08-.91-.23-2.74-.31-3.66Z"/>
    <path class="cls-2" d="M252.31,567.44c9.29,1.19,18.96,2.71,26.81,8.23,18.41,12.16,28.61,32.62,44.7,47.24,15.8,17.41,38.53,27.18,61.47,30.65,7.47,.96,15.04,1.04,22.5,2.16-3.17,6.85-9.4,11.58-15.56,15.62-8.35,4.79-17.04,9.86-26.87,10.6-14.61,1.46-29.07-4.14-40.71-12.68-8.86-6.4-16.31-14.45-23.93-22.23-7.58-7.77-13.75-16.8-21.53-24.4-3.72-3.6-7.02-7.65-11.06-10.9-4.6-3.64-10.23-5.51-15.63-7.57-.7-12.23-.24-24.48-.19-36.72Z"/>
    <path class="cls-2" d="M399.14,814.68c20.05,17.57,40.17,35.06,60.05,52.82-20.03-.04-40.05,.36-60.07,.31-.03-17.71-.07-35.42,.02-53.13Z"/>
  </g>
</svg>